<?xml version="1.0" encoding="utf-8"?>
<!-- Generator: Adobe Illustrator 27.3.1, SVG Export Plug-In . SVG Version: 6.00 Build 0)  -->
<svg version="1.1" id="Layer_1" xmlns="http://www.w3.org/2000/svg" xmlns:xlink="http://www.w3.org/1999/xlink" x="0px" y="0px"
	 viewBox="0 0 108 102" style="enable-background:new 0 0 108 102;" xml:space="preserve">
<style type="text/css">
	.st0{fill:#E1E0E1;}
</style>
<polygon class="st0" points="77.32,8.63 80.72,17.67 90.37,17.28 82.83,23.31 86.19,32.36 78.12,27.05 70.55,33.05 73.11,23.73 
	65.06,18.38 74.71,17.94 "/>
<polygon class="st0" points="27.32,60.63 30.72,69.67 40.37,69.28 32.83,75.31 36.19,84.36 28.12,79.05 20.55,85.05 23.11,75.73 
	15.06,70.38 24.71,69.94 "/>
<polygon class="st0" points="77.32,60.63 80.72,69.67 90.37,69.28 82.83,75.31 86.19,84.36 78.12,79.05 70.55,85.05 73.11,75.73 
	65.06,70.38 74.71,69.94 "/>
</svg>
