<?xml version="1.0" encoding="utf-8"?>
<!-- Generator: Adobe Illustrator 27.1.1, SVG Export Plug-In . SVG Version: 6.00 Build 0)  -->
<svg version="1.1" id="Layer_1" xmlns="http://www.w3.org/2000/svg" xmlns:xlink="http://www.w3.org/1999/xlink" x="0px" y="0px"
	 viewBox="0 0 340 460.4" style="enable-background:new 0 0 340 460.4;" xml:space="preserve">
<style type="text/css">
	.st0{fill:#781282;}
	.st1{fill-rule:evenodd;clip-rule:evenodd;}
</style>
<path class="st0" d="M531.7,290.2c1.1-0.4,2.2-0.5,3.2,0.5C533.9,290.5,532.8,290.3,531.7,290.2z"/>
<polygon class="st0" points="534.2,312.2 534.1,312.2 534.3,311.9 "/>
<g>
	<g>
		<g>
			<g>
				<path d="M284.1,15.3c-8.7,0-15.8,7.1-15.8,15.8c0,8.7,7.1,15.8,15.8,15.8c8.7,0,15.8-7.1,15.8-15.8
					C300,22.4,292.9,15.3,284.1,15.3z M291.4,38c-0.3,0.5-0.9,0.6-1.4,0.3c-3.7-2.3-8.4-2.8-13.9-1.5c-0.5,0.1-1.1-0.2-1.2-0.7
					s0.2-1.1,0.7-1.2c6-1.4,11.2-0.8,15.3,1.8C291.5,37,291.7,37.5,291.4,38z M293.3,33.8c-0.4,0.6-1.1,0.8-1.7,0.4
					c-4.2-2.6-10.7-3.4-15.7-1.8c-0.7,0.2-1.3-0.2-1.5-0.8c-0.2-0.7,0.2-1.3,0.8-1.5c5.7-1.7,12.9-0.9,17.8,2.1
					C293.5,32.5,293.7,33.2,293.3,33.8z M293.5,29.3c-5.1-3-13.5-3.3-18.4-1.8c-0.8,0.2-1.6-0.2-1.8-1c-0.2-0.8,0.2-1.6,1-1.8
					c5.6-1.7,14.9-1.4,20.7,2.1c0.7,0.4,0.9,1.3,0.5,2C295.1,29.5,294.2,29.7,293.5,29.3z"/>
			</g>
		</g>
		<g>
			<path class="st1" d="M284.1,92.3c-8.7,0-15.7,7.1-15.7,15.8c0,8.7,7.1,15.8,15.7,15.8c8.7,0,15.8-7.1,15.8-15.8
				S292.8,92.3,284.1,92.3z M294.8,115.5c-3.4,0.4-7.2,0.4-10.7,0.4s-7.3-0.1-10.7-0.4c-1-0.1-1.5-0.3-1.6-1.4c-0.2-2-0.2-4-0.2-6
				s0-4.1,0.2-6c0.1-1.1,0.6-1.3,1.6-1.4c3.4-0.4,7.2-0.5,10.7-0.4c3.6,0,7.3,0.1,10.7,0.4c1,0.1,1.5,0.3,1.6,1.4c0.2,2,0.2,4,0.2,6
				c0,2.1,0,4.1-0.2,6C296.4,115.2,295.8,115.4,294.8,115.5z"/>
			<path class="st1" d="M277.7,108.1c0-3.5,2.8-6.4,6.4-6.4c3.6,0,6.4,2.9,6.4,6.4s-2.8,6.4-6.4,6.4
				C280.6,114.5,277.7,111.6,277.7,108.1z"/>
		</g>
		<g id="JU6K0O_00000178169369677857289700000001100205736108542369_">
			
				<image style="overflow:visible;enable-background:new    ;" width="2995" height="1193" id="JU6K0O_00000015326893591799766680000011848463340918550461_" xlink:href="../../../../../../Downloads/D4D57ECF0BFB7CDF.png"  transform="matrix(1.724317e-02 0 0 1.724317e-02 258.3203 416.5841)">
			</image>
		</g>
		<g>
			<g>
				<path d="M256.1,186.8c1.7-3.2,4.7-6.6,8.2-7.8c0.8-0.2,1.7-0.4,2.4,0.1c0.6,0.4,0.7,1.1,0.5,1.8c-0.2,0.8-0.7,1.7-1.6,1.9
					c-0.2,0-0.3-0.1-0.4-0.2c-0.2-0.2-0.2-0.6-0.2-0.8c0.2-0.6,0.7-1.2,1.3-1.3c0.1-0.1,0.1-0.2,0-0.3c-0.1-0.2-0.2-0.3-0.4-0.3
					c-0.7-0.1-1.2,0.4-1.8,0.8c-2.1,1.7-3.5,3.8-4.8,5.8c-1,1.9-1.9,3.9-2.2,6c-0.1,1.6,0.4,3.2,1.8,4c1.5,0.8,3.6,0.3,5.1-0.2
					l1.4-0.5l2.7-0.8c2.6-0.8,5.8-0.9,8.4,0.1c1.5,0.7,3.1,1.5,4.1,3v0.1c-2.2-0.6-5-1.1-7.2-0.2h-0.1c-0.7-1-1.8-1.6-2.9-1.9
					c-3.7-0.4-6.6,1.4-10.1,1.8c-1.7,0.2-3.6,0.1-4.8-1.2c-1.9-1.9-1.7-5.3-0.8-7.6C255.3,188.4,255.7,187.6,256.1,186.8z"/>
				<path d="M261.1,188c0.9-1.7,2.3-3.7,4.2-4.3c0.5-0.1,1-0.1,1.5,0.3c0.8,0.8,0.5,2.3,0.2,3.2c0,0.1,0,0.1,0.1,0.1
					c0.8,0,1.3-0.4,1.9-0.8c1.1-1.3,2.4-2.9,4.2-2.7c0.4,0.1,0.7,0.3,0.8,0.6c0.5,0.9,0,2-0.7,2.6c-0.3,0.2-0.6,0.4-0.9,0.3
					c-0.2,0-0.3-0.2-0.3-0.4c-0.1-0.7,0.3-1.2,0.8-1.6c0.2-0.2,0.6,0,0.5-0.4c-0.1-0.2-0.2-0.2-0.4-0.2c-0.9,0.4-1.5,1.3-2,2.1
					c-0.7,1-1.2,2.2-1.5,3.3c-0.1,0.4-0.2,0.9,0,1.3c0.2,0.3,0.5,0.4,0.8,0.3c0.8-0.4,1.7-1,2.4-1.8c1.6-1.9,2.4-4.1,4.5-5.8
					c0.7-0.5,1.6-0.8,2.4-0.4c0.1,0,0.2,0.2,0.4,0.2c0.1-0.1,0.2-0.4,0.5-0.4c0.6,0,1.2,0,1.8,0v0.1L282,184l-3.2,6.6
					c0,0.1,0,0.2,0,0.3c0.1,0.1,0.2,0.1,0.3,0.1c0.5-0.3,0.8-0.8,1.1-1.1c0.3-0.4,0.6-0.8,0.8-1.2c0.1-0.1,0.2-0.3,0.4-0.3
					c0.2,0,0.4-0.1,0.6,0.1c-0.2,0.6-0.6,1-0.8,1.6c-0.8,1.3-2,2.9-3.7,3.3c-0.3,0-0.6,0.1-0.8-0.2c-0.3-0.3-0.4-0.7-0.4-0.9h-0.1
					c-0.7,0.7-1.4,1.2-2.4,1.1c-0.3-0.1-0.6-0.3-0.8-0.6c-0.3-0.5-0.1-1.1-0.2-1.7c0-0.1-0.1,0-0.1,0c-1,1-2.2,2-3.6,2.3
					c-0.7,0.1-1.2-0.1-1.7-0.6c-1-1.3-0.2-3.2,0.4-4.5c0-0.1,0-0.2-0.1-0.2c-0.4,0-0.8,0.1-1.1,0.2l-0.1,0.2
					c-0.8,1.6-1.8,3.2-3.3,4.4c-0.7,0.5-1.6,0.8-2.4,0.4c-0.8-0.6-0.8-1.5-0.8-2.4C260.3,189.8,260.7,188.9,261.1,188z M263.5,187.9
					c-0.5,0.9-0.9,1.8-0.9,2.8c0,0.2,0.2,0.5,0.4,0.5c0.2,0.1,0.5-0.1,0.7-0.2c0.8-0.8,1.5-1.7,2-2.7c0-0.1,0.1-0.2,0.1-0.3
					c-0.5-0.2-1-0.6-1.4-1h-0.1c-0.1,0-0.1,0.1-0.2,0.2L263.5,187.9z M264.8,186c0,0.5,0.5,0.8,0.8,1c0.1,0,0.3,0.1,0.4,0
					c0.2-0.3,0.3-0.7,0.4-0.9c0.1-0.5,0.2-1-0.3-1.3c-0.2-0.1-0.4-0.1-0.5,0C265.2,185.1,264.8,185.6,264.8,186z M275.6,189.7
					c-0.1,0.4-0.3,0.8-0.2,1.2c0,0.1,0.1,0.2,0.2,0.2c0.4,0,0.6-0.3,0.8-0.6c1-1.4,1.8-3,2.5-4.6c0.1-0.4,0.3-0.7,0.3-1
					c0-0.1-0.1-0.2-0.2-0.2c-0.2-0.1-0.3,0-0.5,0.1c-1.4,1-2.2,2.6-2.8,4.1L275.6,189.7z"/>
				<path d="M282.3,185.6c0.3-0.7,0.6-1.2,0.9-1.8c0.2-0.2,0.4-0.2,0.7-0.2h1.5l0.1,0.1c-0.3,0.7-0.6,1.2-0.8,1.8
					c-0.1,0.2-0.3,0.3-0.5,0.4c-0.7,0-1.3,0-1.9,0C282.3,185.8,282.3,185.7,282.3,185.6z"/>
				<path d="M283.9,188.9c1-2.3,2.4-4.4,4.2-6.3c1.8-1.8,3.8-3.2,6.1-3.7c0.7-0.1,1.3,0,1.8,0.4c0.1,0.1,0.2,0.2,0.4,0.1
					c1.7-0.7,4.1-0.9,5.8-0.1c0.9,0.5,1.9,1.1,2.8,1.7c0.1,0.1,0.1,0.2,0,0.3c-0.6,0.6-1,1.2-1.5,1.8c-0.1,0.1-0.2,0-0.2,0l-2.5-1.7
					c-1.1-0.8-2.5-1.3-4-1.1c-0.2,0.1-0.1,0.3-0.1,0.5c0,1.5-0.5,2.9-1.2,4.1c-0.6,0.8-1.3,1.8-2.3,2.1c-0.5,0.1-0.8,0-1.1-0.4
					c-0.8-1.1-0.1-2.5,0.5-3.5c0.7-1.1,1.6-2.1,2.6-2.9c0,0,0.1-0.1,0-0.1c-0.1-0.1-0.3,0-0.4,0c-1.7,0.6-3,2.1-4.2,3.5
					c-2.3,2.7-3.9,5.7-4.9,9c-0.3,1.2-0.7,3.1,0.6,4c1.1,0.6,2.2-0.2,3-0.8c1.2-1.3,2.1-2.7,2.5-4.4c0.1-0.5,0.2-1.1-0.3-1.5
					c-0.4-0.2-0.8,0.2-1,0.5c-0.7,0.8-0.9,1.7-1,2.6c-0.3,0.2-0.7,0.4-0.9,0.7c-0.6,0.4-1.1,0.9-1.6,1.4c-0.1,0-0.1,0-0.1-0.1
					c-0.1-1.8,0.6-3.4,1.6-4.8c0.8-0.9,1.8-1.7,3.1-1.4c0.6,0.2,0.9,0.8,1,1.2c0.2,1.7-0.5,3.2-1.3,4.6c-1.2,2-3.2,4-5.8,3.7
					c-0.9-0.1-1.9-0.8-2.3-1.6c-0.9-1.9-0.3-4.3,0.4-6.1L283.9,188.9z M292.5,185.6c0,0.2,0.1,0.5,0.4,0.5c0.5,0.1,0.8-0.2,1-0.5
					c1.1-1.2,1.8-2.6,2-4.2c0-0.2,0.1-0.6-0.1-0.8c-0.1,0-0.2,0-0.3,0.1c-0.8,0.5-1.5,1.2-2,2C292.9,183.7,292.5,184.5,292.5,185.6z
					"/>
				<path d="M294.1,190.9c0.9-1.2,2.2-2.5,3.7-2.6c0.4,0,0.8,0.2,0.9,0.5c0.7,0.9,0.1,2.2-0.2,3.2c0,0.1,0,0.2,0.1,0.2
					c0.3,0,0.7,0,0.9-0.2l0.1-0.2c1.1-3.1,2.7-6,4.7-8.9c1.2-1.6,2.7-3.3,4.6-4.1c0.5-0.2,1-0.4,1.4,0c0.5,0.4,0.4,1,0.2,1.5
					c0,0.5-0.6,0.5-0.8,0.6l0,0c0-0.3,0.2-0.6,0.2-0.8c0-0.2,0-0.3,0-0.4c-0.1-0.2-0.3-0.1-0.4-0.1c-0.7,0.3-1.1,0.8-1.6,1.3
					c-1.8,2-3,4.2-4.1,6.5c-0.4,0.8-0.8,1.6-1.1,2.4v0.1c0.3,0,0.5-0.3,0.7-0.5c1.5-1.4,2.8-3,4-4.6c0.3-0.1,0.6-0.1,0.8-0.2h0.1
					c0,0.2-0.2,0.4-0.3,0.6c-1.3,1.9-2.7,3.7-4.5,5.3l-1.3,1c-0.3,0.2-0.3,0.6-0.4,0.9c-0.3,0.8-0.5,1.7-0.6,2.5
					c0,0.2,0.1,0.3,0.2,0.4c0.4,0.2,0.7-0.2,0.8-0.4c1.7-2,2.5-4.5,4.6-6.3c0.7-0.6,1.6-1,2.5-0.6c0.2,0.1,0.3,0.3,0.5,0.2
					c0.2-0.1,0.2-0.3,0.4-0.3c0.7,0,1.3,0,1.9,0c0.1,0,0,0.1,0,0.2l-0.5,0.8l-2.6,5.4c-0.1,0.3-0.3,0.5-0.3,0.8
					c0,0.1,0.2,0.1,0.3,0.1c0.5-0.3,0.8-0.8,1.2-1.2c0.4-0.5,0.6-0.9,0.9-1.4c0.2-0.1,0.4,0,0.6,0c0.1,0.1,0,0.2-0.1,0.4
					c-0.8,1.6-1.9,3.4-3.6,4.2c-0.4,0.2-0.9,0.4-1.4,0.2c-0.4-0.3-0.3-0.7-0.5-1c0,0-0.1,0-0.2,0c-0.7,0.7-1.5,1.3-2.5,1
					c-0.7-0.3-0.7-1-0.8-1.6c0,0,0-0.1-0.1-0.1h-0.1c-0.7,0.8-1.6,1.9-2.7,1.8c-0.5,0-0.8-0.5-0.9-0.8c-0.4-1.3,0-2.7,0.3-4
					c0-0.1-0.1-0.2-0.2-0.2H298l-0.2,0.2c-0.8,1.4-1.5,2.7-2.7,4c-0.7,0.6-1.4,1-2.4,0.8c-0.8-0.3-0.9-1.1-0.9-1.9
					C292.1,194.1,292.9,192.4,294.1,190.9z M294.2,195.3c0,0.3,0.2,0.6,0.5,0.7c0.2,0.1,0.4,0,0.6-0.1c0.9-0.7,1.4-1.7,2-2.6
					c0-0.1,0.1-0.3,0-0.3c-0.5-0.3-0.9-0.7-1.3-1c0,0-0.2-0.1-0.2,0c-0.4,0.5-0.6,0.9-0.8,1.5C294.5,193.9,294.2,194.5,294.2,195.3z
					 M296.5,190.8c0,0.5,0.4,0.9,0.8,1.1c0.1,0,0.3,0.1,0.3,0c0.3-0.7,0.5-1.3,0.4-2c-0.1-0.2-0.2-0.4-0.4-0.4c-0.2,0-0.4,0-0.5,0.1
					C296.8,189.8,296.6,190.3,296.5,190.8z M305.3,195c0,0.2-0.1,0.5,0.1,0.7c0.1,0.1,0.3,0.1,0.4,0.1c0.5-0.3,0.8-0.8,1-1.1
					c0.9-1.5,1.7-3.1,2.4-4.7c0-0.2,0.1-0.4-0.1-0.5c-0.4-0.2-0.7,0.3-0.9,0.5c-1.2,1.2-1.9,2.7-2.5,4.3L305.3,195z"/>
				<path d="M307.2,183.2l0.8-1.1l0.1-0.1c2.5,0,4.3-1.5,6-3.2c0,0.2-0.1,0.5-0.2,0.7c-1.1,2.6-3.9,5-6.8,5h-0.7c-0.1,0,0-0.2,0-0.2
					L307.2,183.2z"/>
			</g>
		</g>
		<g>
			<path d="M292.9,272.6c-0.1,0.6,0.1,1.1,0.5,1.5c0.7,0.7,1.6,0.8,2.5,0.5c0.7-0.3,1.2-0.7,1.7-1.2l0.1-0.1c0.1,0,0.1,0.1,0.1,0.2
				c0,0.3,0,0.5,0,0.8c0,3.6,0,7.3,0,10.9c0,0.2-0.1,0.3-0.3,0.3c-8.9,0-17.7,0-26.6,0c-0.2,0-0.3,0-0.3-0.3c0-3.7,0-7.4,0-11.1
				c0-0.2,0-0.3,0.2-0.2c0.8,0.3,1.5,0.1,2.3-0.2c0.7-0.3,1.3-0.8,1.9-1.3c0.1-0.1,0.1-0.1,0.3-0.2c-0.1,0.6-0.3,1.2-0.3,1.8
				c0.1,0.9,0.4,1.6,1.3,1.7c0.5,0.1,1.1,0,1.6-0.2c0.8-0.4,1.6-0.9,2.3-1.5c0.5-0.4,0.9-0.9,1.3-1.3c0.1-0.1,0.2-0.2,0.2-0.1
				c0.1,0.1,0,0.1,0,0.2c-0.1,0.7-0.1,1.4,0.5,2c0.4,0.4,0.8,0.4,1.4,0.3c0.7-0.1,1.2-0.4,1.7-0.8c0.4-0.3,0.8-0.7,1.1-1.1l0.1-0.1
				c0.1-0.1,0.2-0.2,0.3-0.2c0.1,0.1,0,0.2,0,0.3c0,1.2,0.8,2.2,2,2.1c0.7-0.1,1.4-0.4,2-0.8c0.7-0.5,1.3-1.1,1.8-1.7
				C292.6,272.7,292.7,272.7,292.9,272.6z"/>
			<path d="M297.7,258.3c0,0.2,0,0.3,0,0.4c0,4,0,7.9,0,11.9c0,0.2,0,0.3-0.3,0.3c-8.9,0-17.7,0-26.6,0c-0.2,0-0.3,0-0.3-0.3
				c0-2.2,0-4.3,0-6.5c0-0.6,0.3-1.1,0.6-1.5c0.6-0.8,1.4-1.3,2.2-1.8c0.7-0.4,1.4-0.8,2.1-1.3c0.8-0.6,1.3-1.2,1.3-2.2
				c0-0.1,0-0.1,0.1-0.1s0.1,0.1,0.1,0.1c0.2,0.4,0.3,0.8,0.4,1.3c0.2,1.2-0.2,2.3-0.6,3.4c-0.2,0.6-0.5,1.3-0.6,2
				c-0.1,0.3-0.1,0.6,0.1,1c0.3-0.9,0.6-1.7,1.1-2.4c0.6-0.9,1.5-1.6,2.4-2.1s1.8-0.8,2.7-1.2c1-0.5,2-1.1,2.5-2.2
				c0.4-0.9,0.4-1.8-0.1-2.7c-0.1-0.1-0.1-0.2-0.2-0.3c0.3,0,0.6,0.1,0.8,0.3c1.1,0.7,1.7,1.7,2.1,2.9c0.2,0.8,0.4,1.7,0.3,2.5
				c-0.1,1.1-0.5,2.1-1,3c-0.6,1.1-1.3,2.2-1.8,3.3c-0.2,0.5-0.5,1.1-0.5,1.7c0.2-0.2,0.3-0.4,0.3-0.6c0.3-0.7,0.7-1.2,1.2-1.8
				c0.8-1,1.8-1.9,2.6-2.9c0.6-0.7,1.1-1.4,1.4-2.2c0.3-0.9,0.4-1.7,0.1-2.7c0.1,0,0.2,0.1,0.3,0.1c0.7,0.7,1.2,1.5,1.6,2.4
				c0.3,0.7,0.5,1.5,0.7,2.2c0.1,0.6,0.2,1.2,0.3,1.8c0.2-0.3,0.4-0.7,0.5-1c0.6-0.9,1.4-1.6,2.2-2.3
				C296.2,260.4,297.1,259.3,297.7,258.3z"/>
		</g>
		<g>
			<path d="M239.4,346c1,0,2,0,3,0c0.3,1.8,0.6,3.6,0.9,5.3c0,0,0,0,0.1,0c0.4-1.8,0.8-3.6,1.2-5.3c1,0,2.1,0,3.1,0
				c0.4,1.8,0.8,3.5,1.1,5.3c0,0,0,0,0.1,0c0.1-0.6,0.2-1.3,0.3-1.9c0.2-1.1,0.4-2.1,0.5-3.2c0-0.1,0.1-0.2,0.2-0.2
				c0.9,0,1.9,0,2.8,0c-0.7,2.9-1.4,5.7-2.1,8.5c-0.3,0-0.7,0-1,0c-0.7,0-1.4,0-2,0c-0.2,0-0.3-0.1-0.3-0.3c-0.4-1.7-0.8-3.3-1.3-5
				c-0.1,0.6-0.3,1-0.4,1.5c-0.3,1.2-0.6,2.3-0.9,3.5c-0.1,0.2-0.1,0.3-0.4,0.3c-0.9,0-1.8,0-2.7,0c-0.1,0-0.2,0-0.3,0
				C240.8,351.7,240.1,348.9,239.4,346z"/>
			<path d="M322.6,353.9c-1,0.7-2,0.9-3.1,0.7c-1.7-0.3-2.8-1.6-2.7-3.4c0.1-1.5,0.9-2.7,2.1-3.1c1.2-0.4,2.4-0.3,3.5,0.5
				c0,0,0.1,0.1,0.2,0.1c0-0.9,0-1.8,0-2.7c1,0,1.9,0,2.9,0c0,2.8,0,5.7,0,8.5c-0.9,0-1.9,0-2.8,0
				C322.6,354.3,322.6,354.2,322.6,353.9z M321.1,352.8c0.9,0,1.5-0.6,1.5-1.5c0-0.9-0.6-1.4-1.5-1.4c-0.9,0-1.5,0.6-1.5,1.4
				C319.6,352.2,320.2,352.8,321.1,352.8z"/>
			<path d="M279.8,354.5c-1,0-1.9,0-2.8,0c0-0.2,0-0.4,0-0.5c-0.5,0.2-1,0.4-1.5,0.5c-1.3,0.3-2.6,0.1-3.5-1c-0.9-1.1-1-2.3-0.5-3.6
				c0.5-1.2,1.4-1.9,2.7-2c1-0.1,1.9,0.1,2.7,0.7c0,0,0.1,0,0.1,0.1c0-0.9,0-1.8,0-2.7c1,0,1.9,0,2.8,0
				C279.8,348.9,279.8,351.7,279.8,354.5z M275.4,352.8c0.9,0,1.5-0.6,1.5-1.5c0-0.9-0.6-1.4-1.5-1.4c-0.9,0-1.5,0.6-1.5,1.4
				C274,352.2,274.6,352.8,275.4,352.8z"/>
			<path d="M307.3,354.5c-1,0-1.9,0-2.8,0c-0.1,0-0.1-0.1-0.2-0.1c0-0.1-0.1-0.3-0.1-0.5c-0.1,0-0.2,0.1-0.3,0.1
				c-1.2,0.5-2.3,0.8-3.6,0.6c-0.3,0-0.7-0.1-1-0.3c-0.9-0.4-1.4-1.3-1.1-2.3c0.1-0.5,0.5-0.8,0.9-1c0.7-0.3,1.4-0.4,2.1-0.5
				c0.9-0.1,1.8-0.1,2.6-0.1c0.1,0,0.1,0,0.2,0c0-0.3-0.1-0.6-0.4-0.7c-0.8-0.3-1.5-0.3-2.3,0.1c0,0-0.1,0-0.1,0.1
				c-0.1,0.3-0.4,0.2-0.6,0.2c-0.7,0-1.5,0-2.3,0c0.1-0.8,0.4-1.4,1.1-1.7c0.5-0.2,1.1-0.4,1.7-0.4c1.3-0.2,2.6-0.1,3.8,0.1
				c0.1,0,0.2,0,0.3,0.1c1.1,0.3,1.5,0.9,1.5,2c0,1.1,0,2.3,0,3.4C307,353.9,307,354.2,307.3,354.5z M304.2,351.6
				c-0.7,0-1.4,0.1-2.1,0.1c-0.2,0-0.4,0.1-0.6,0.2c-0.4,0.2-0.5,0.7-0.1,0.9c0.1,0.1,0.3,0.1,0.4,0.2c0.7,0.1,1.3-0.1,1.9-0.5
				C304,352.3,304.2,352,304.2,351.6z"/>
			<path d="M289.5,351.7c-2.1,0-4.2,0-6.3,0c0.1,0.5,0.3,0.8,0.7,1c0.7,0.5,1.7,0.4,2.4-0.1c0.1-0.1,0.2-0.1,0.3-0.1
				c0.9,0,1.8,0.1,2.7,0.1c0,0,0.1,0,0.1,0c-0.3,0.5-0.7,0.9-1.1,1.2c-0.7,0.4-1.4,0.6-2.2,0.7c-1.2,0.2-2.4,0.1-3.6-0.3
				c-1.1-0.4-1.9-1.1-2.2-2.3c-0.4-1.8,0.6-3.3,2.5-3.8c1.4-0.4,2.8-0.4,4.3,0.1c1.6,0.5,2.5,1.7,2.5,3.3
				C289.5,351.6,289.5,351.6,289.5,351.7z M286.5,350.6c-0.2-0.7-0.8-1-1.7-1c-0.7,0-1.4,0.4-1.5,1
				C284.4,350.6,285.4,350.6,286.5,350.6z"/>
			<path d="M257,354.7c-1,0-2-0.1-2.9-0.5c-1.8-0.8-2.5-2.8-1.5-4.4c0.5-0.7,1.2-1.2,2-1.4c1.6-0.5,3.2-0.5,4.8,0
				c1,0.3,1.8,1,2.2,2.1c0.4,1.4-0.1,2.8-1.4,3.6C259.2,354.5,258.1,354.7,257,354.7z M255.2,351.3c0,1.1,0.7,1.7,1.8,1.7
				c1.1,0,1.8-0.7,1.7-1.7c0-1-0.7-1.6-1.8-1.6C255.9,349.6,255.2,350.3,255.2,351.3z"/>
			<path d="M310.6,354.5c-1,0-1.9,0-2.9,0c0-2.1,0-4.3,0-6.4c1,0,1.9,0,2.9,0c0,0.2,0,0.5,0,0.8c0.1-0.1,0.2-0.1,0.3-0.2
				c1.2-0.8,2.6-0.9,4-0.5c0.9,0.2,1.4,0.9,1.5,1.8c0,0.3,0.1,0.6,0.1,0.9c0,1.1,0,2.2,0,3.3c0,0.1,0,0.2,0,0.3c-1,0-1.9,0-2.9,0
				c0-0.1,0-0.2,0-0.3c0-0.9,0-1.8,0-2.7c0-0.3,0-0.6-0.1-0.8c-0.1-0.5-0.4-0.8-0.9-0.8c-1.1-0.2-1.9,0.3-1.9,1.4c0,1,0,1.9,0,2.9
				C310.6,354.3,310.6,354.4,310.6,354.5z"/>
			<path d="M265,354.5c-1,0-1.9,0-2.9,0c0-2.1,0-4.2,0-6.4c0.9,0,1.9,0,2.9,0c0,0.2,0,0.5,0,0.8c0.1-0.1,0.2-0.1,0.3-0.2
				c1.2-0.8,2.6-0.9,4-0.5c1,0.3,1.5,1,1.5,1.9c0.1,1.4,0,2.9,0,4.3c0,0,0,0,0,0.1c-0.9,0-1.9,0-2.8,0c0-0.1,0-0.2,0-0.3
				c0-1,0-2,0-3c0-0.9-0.5-1.3-1.4-1.3c-0.9,0-1.5,0.4-1.5,1.3c-0.1,1,0,2,0,3C265,354.2,265,354.4,265,354.5z"/>
			<path d="M295,346c1,0,1.9,0,2.8,0c0,2.8,0,5.7,0,8.5c-1,0-1.9,0-2.8,0C295,351.7,295,348.9,295,346z"/>
			<path d="M294.8,350.5c-0.5,0-0.9,0-1.3,0.1c-0.6,0.1-0.9,0.5-0.9,1.1c0,1,0,1.9,0,2.9c-0.9,0-1.9,0-2.8,0c0-2.1,0-4.2,0-6.4
				c0.9,0,1.9,0,2.8,0c0,0.3,0,0.6,0,1c0.6-0.7,1.3-1.1,2.2-1.1C294.8,348.8,294.8,349.7,294.8,350.5z"/>
			<path d="M326.2,354.5c0-0.7,0-1.5,0-2.2c0.9,0,1.8,0,2.7,0c0,0.7,0,1.5,0,2.2C328,354.5,327.1,354.5,326.2,354.5z"/>
		</g>
	</g>
	<g>
		<g id="Page-1-3_00000098205138639182758030000000662726085062748345_">
			<g id="About-4_00000077322387145096028510000001453877094187740338_">
				<g id="apple_00000060732125992383108390000003604467944135118005_">
					<g id="Apple_logo_black_00000102537708418557860740000012227851679101257089_">
						<path id="path4_00000114778470073529786530000001358163107639073209_" d="M69.5,39.3c-0.4,1-1,2-1.6,2.9
							c-0.6,0.9-1.3,1.7-2.1,2.5c-0.7,0.7-1.6,1.1-2.6,1.2c-0.8,0-1.7-0.2-2.4-0.6c-0.8-0.4-1.7-0.6-2.6-0.6s-1.8,0.2-2.7,0.6
							c-0.7,0.3-1.5,0.5-2.3,0.6c-1,0-2-0.4-2.7-1.2c-0.8-0.8-1.5-1.6-2.1-2.6c-1-1.4-1.7-2.9-2.3-4.5c-0.6-1.7-0.9-3.5-1-5.4
							c0-1.8,0.4-3.6,1.3-5.1C47,26,48,25,49.1,24.4c1.1-0.7,2.4-1,3.7-1c1,0.1,1.9,0.3,2.8,0.7c0.7,0.3,1.5,0.5,2.2,0.7
							c0.9-0.2,1.7-0.4,2.5-0.8c1.1-0.4,2.2-0.6,3.4-0.6c2.2,0.1,4.3,1.2,5.6,3c-3.1,1.8-4.2,5.7-2.5,8.8c0.3,0.6,0.7,1.1,1.2,1.6
							c0.6,0.6,1.3,1,2.1,1.3C69.8,38.4,69.7,38.9,69.5,39.3z M63.7,16.8c0,1.5-0.6,3-1.6,4.2c-1.1,1.5-2.8,2.3-4.6,2.3
							c0-0.2,0-0.4,0-0.6c0.1-1.6,0.7-3.1,1.7-4.2c0.6-0.7,1.3-1.2,2.1-1.6c0.7-0.4,1.6-0.6,2.4-0.7C63.7,16.4,63.8,16.6,63.7,16.8
							L63.7,16.8z"/>
					</g>
				</g>
			</g>
		</g>
		<g id="Page-1-4_00000166653036463803147660000014796817411221148325_">
			<g id="About-5_00000176027845710295810350000011071440162679766405_">
				<g id="Group-4_00000173857146753044174370000013614658294821082298_">
					<g id="logo-instagram_00000120551385686172230470000009611450144783872149_">
						<path id="Shape_00000140692998855189899850000010656357308216123556_" d="M57.6,96.3c3.8,0,4.3,0,5.8,0.1c3-0.3,5.6,2,5.9,5
							c0,0.3,0,0.6,0,0.9c0.1,1.5,0.1,2,0.1,5.8s0,4.3-0.1,5.8c0.3,3-2,5.6-5,5.9c-0.3,0-0.6,0-0.9,0c-1.5,0.1-2,0.1-5.8,0.1
							s-4.3,0-5.8-0.1c-1.6,0.1-3.1-0.5-4.3-1.6c-1.1-1.2-1.6-2.7-1.6-4.3c-0.1-1.5-0.1-2-0.1-5.8s0-4.3,0.1-5.8
							c-0.1-1.6,0.5-3.1,1.6-4.3c1.2-1.1,2.7-1.6,4.3-1.6C53.3,96.3,53.8,96.3,57.6,96.3 M57.6,93.7c-3.9,0-4.4,0-5.9,0.1
							c-4.4-0.2-8.2,3.2-8.4,7.6c0,0.3,0,0.5,0,0.8c-0.1,1.5-0.1,2-0.1,5.9s0,4.4,0.1,5.9c-0.2,4.4,3.2,8.2,7.6,8.4
							c0.3,0,0.5,0,0.8,0c1.5,0.1,2,0.1,5.9,0.1s4.4,0,5.9-0.1c4.4,0.2,8.2-3.2,8.4-7.6c0-0.3,0-0.5,0-0.8c0.1-1.5,0.1-2,0.1-5.9
							s0-4.4-0.1-5.9c0.2-4.4-3.2-8.2-7.6-8.4c-0.3,0-0.5,0-0.8,0C62,93.7,61.5,93.7,57.6,93.7L57.6,93.7z"/>
						<path id="Shape-2_00000080890402118546331940000009416140187509691553_" d="M57.6,100.7c-4.1,0-7.4,3.3-7.4,7.4
							s3.3,7.4,7.4,7.4c4.1,0,7.4-3.3,7.4-7.4S61.7,100.7,57.6,100.7L57.6,100.7z M57.6,112.9c-2.7,0-4.8-2.1-4.8-4.8
							c0-2.7,2.1-4.8,4.8-4.8s4.8,2.1,4.8,4.8l0,0C62.4,110.8,60.3,112.9,57.6,112.9z"/>
						<circle id="Oval_00000070096429256726982970000004841108696407193021_" cx="65.3" cy="100.4" r="1.7"/>
					</g>
				</g>
			</g>
		</g>
		<g>
			<path d="M42.6,193.3c0.1-0.1,0.1-0.2,0.1-0.3c0.3-0.8,0.5-1.6,0.7-2.4c1.2-3.9,2.4-7.7,3.6-11.6c0-0.1,0-0.2,0.1-0.3
				c11.3,0,22.6,0,33.9,0h0.1c0,0.1,0,0.1,0,0.2c0,0.9,0,2.9,0,3H81c-0.1,0-0.2,0-0.3,0c-10.2,0-20.3,0-30.6,0c-0.1,0-0.3,0-0.4,0
				c0,0.1-0.1,0.2-0.1,0.3c-1.4,4.5-2.9,8.9-4.2,13.4c-0.2,0.6-0.4,1.1-0.6,1.7c0,0.1-0.1,0.2-0.1,0.3c-0.3,0-4.3,0-4.5,0
				c0,0,0-0.1-0.1-0.1c-2-6.2-4.1-12.4-6.1-18.6v-0.1c0.2,0,3.3,0,3.7,0c0.1,0.1,0.1,0.2,0.1,0.3c0.4,1.2,0.7,2.3,1.2,3.5
				c0.6,1.7,1.1,3.3,1.7,5c0.6,1.7,1.2,3.6,1.7,5.3C42.5,193.2,42.5,193.2,42.6,193.3z"/>
			<path d="M60.1,185c1,0,2,0,3.1,0c0.1,0.1,0.1,0.2,0.2,0.3c1.1,2.1,2.2,4.2,3.3,6.4c0,0.1,0.1,0.2,0.2,0.3c0-0.2,0-0.4,0-0.6
				c0-0.2,0-0.4,0-0.6c0-0.2,0-0.4,0-0.6c0-0.2,0-0.4,0-0.6s0-0.4,0-0.6s0-0.4,0-0.6c0-0.2,0-0.4,0-0.6c0-0.2,0-0.4,0-0.6
				s0-0.4,0-0.6s0-0.4,0-0.6c0-0.2,0-0.4,0-0.6c0-0.2,0-0.4,0-0.6c0-0.2,0-0.4,0-0.6c0.3,0,0.6,0,0.8,0c0.3,0,0.6,0,0.8,0
				c0.3,0,0.6,0,0.8,0c0.3,0,0.6,0,0.8,0c0,0.1,0,0.1,0,0.2c0,0.1,0,0.1,0,0.2c0,4.1,0,8.1,0,12.2c0,0.1,0,0.2,0,0.3
				c-0.1,0.1-0.2,0.1-0.3,0.1c-0.5,0-1,0-1.5,0c-0.4,0-0.8,0-1.2,0c-0.1,0-0.2,0-0.3,0c-0.1-0.1-0.1-0.2-0.2-0.3
				c-1.1-2.1-2.2-4.1-3.3-6.3c-0.1-0.1-0.1-0.2-0.2-0.3c-0.1,0-0.1,0.1-0.1,0.1c0,0.4,0,0.8,0.1,1.2c0,0.7,0.1,1.5,0.1,2.2
				c0,1,0,2,0,3c0,0.1,0,0.2,0,0.3c-0.1,0-0.1,0-0.2,0c-1.2,0-2.8,0-3,0v-0.1C60,196.8,60,185.2,60.1,185z"/>
			<path d="M71.5,193.8c0.2,0,2.7-0.1,3.2,0c0,0,0.1,0.1,0.1,0.2c0.1,0.2,0.2,0.4,0.2,0.6c0.2,0.4,0.5,0.6,0.8,0.6
				c0.4,0.1,0.8,0.1,1.2-0.1c0.1,0,0.2-0.1,0.4-0.2c0.3-0.2,0.5-0.7,0.2-1.1c-0.1-0.2-0.3-0.3-0.5-0.4c-0.3-0.2-0.6-0.3-1-0.5
				c-0.4-0.1-0.8-0.3-1.2-0.5c-0.6-0.3-1.2-0.6-1.7-1c-0.6-0.5-1-1.1-1.2-1.9c-0.1-0.5-0.2-0.9-0.1-1.4c0-0.3,0.1-0.6,0.2-0.9
				c0.4-1.3,1.1-2.1,2.4-2.5c0.5-0.2,0.9-0.3,1.5-0.3c0.6-0.1,1.3,0,1.8,0.2c1.3,0.4,2.1,1.1,2.7,2.3c0.2,0.5,0.3,0.9,0.4,1.5
				c0,0,0,0,0,0.1h-0.1c-1,0-2,0-2.9,0c0,0,0,0-0.1,0c0-0.1,0-0.1-0.1-0.2c-0.1-0.3-0.2-0.5-0.5-0.6c-0.5-0.4-0.9-0.4-1.5-0.2
				c-0.1,0-0.2,0.1-0.3,0.1c-0.3,0.2-0.4,0.6-0.2,0.9c0.1,0.1,0.2,0.3,0.4,0.4c0.3,0.2,0.5,0.3,0.7,0.4c0.3,0.1,0.6,0.2,0.9,0.3
				c0.6,0.2,1.1,0.4,1.7,0.6c0.4,0.2,0.7,0.5,1.1,0.8c0.6,0.6,0.9,1.2,1,1.9c0.1,0.3,0,0.6,0,0.9c0,0.5-0.1,0.8-0.3,1.3
				c-0.4,1.1-1,1.8-2.1,2.3c-0.5,0.2-0.9,0.3-1.3,0.4c-0.5,0.1-1,0.1-1.5,0.1c-0.6-0.1-1.1-0.2-1.7-0.4c-1.1-0.5-1.8-1.2-2.2-2.3
				c-0.2-0.4-0.3-0.8-0.3-1.2C71.5,194,71.5,193.9,71.5,193.8C71.5,193.9,71.5,193.9,71.5,193.8z"/>
			<path d="M51.7,185c0.3,0,3.1,0,3.4,0c0,0,0,0.1,0.1,0.1c0.3,0.9,3.6,12.4,3.7,12.7c-0.1,0-0.1,0-0.2,0c-1.3,0-2.9,0-3.1,0
				c-0.2-0.6-0.3-1.1-0.4-1.7c-0.1,0-0.1,0-0.2,0c-1,0-2,0-2.9,0c-0.1,0-0.1,0-0.2,0c-0.2,0.6-0.3,1.1-0.4,1.7c-0.1,0-0.1,0-0.2,0
				c-1,0-1.9,0-2.9,0c-0.1,0-0.1,0-0.2,0v-0.1C49.3,193.4,50.5,189.2,51.7,185z M54.5,193.4c0-0.1,0-0.1,0-0.2
				c-0.1-0.6-0.3-1.1-0.4-1.6c-0.2-0.8-0.5-1.7-0.6-2.6c0,0,0-0.1-0.1-0.1c-0.4,1.5-0.6,2.9-1,4.3v0.1
				C53.1,193.4,53.8,193.4,54.5,193.4z"/>
		</g>
		<g>
			<path d="M63.6,285.6c-0.2,0-0.3,0-0.6-0.1c-1.6-0.3-2.6-1.3-3-2.8c-0.2-0.9-0.2-1.7,0.1-2.7c0.3-0.7,0.8-1.3,1.4-1.7
				s1-0.8,1.6-1.3c0.5-0.5,0.9-0.9,1-1.5c0.1-0.5,0.1-0.8,0-1.3c-0.2-0.8-0.9-1.2-1.7-1.2c-0.6,0-1.2,0.2-1.7,0.5
				c-0.5,0.2-1,0.5-1.6,0.6c-1.3,0.2-2.8-0.2-3.4-1.9c0-0.1-0.1-0.1-0.2-0.1c-1.3,0-2.6,0-3.8,0c-0.1,0-0.2,0-0.2,0.1
				c-0.6,0.7-0.9,1.9-0.1,2.9c0.1,0.2,0.3,0.5,0.6,0.7c0.5,0.5,0.8,1,0.9,1.6c0.3,1.3,0.2,2.6-0.6,3.7c-0.6,0.8-1.4,1.2-2.3,1.4
				c-1.2,0.2-2.1,0-3-0.7c-1-0.8-1.6-1.9-1.6-3.2c0-1.2,0.3-2.2,1.2-3.1c0.3-0.5,0.7-0.8,0.9-1.3c0.7-0.9,0.9-1.9,0.8-2.9
				c0-0.8-0.2-1.5-0.5-2.3c-0.2-0.8-0.2-1.5-0.1-2.3c0.1-0.9,0.7-1.6,1.5-1.9c0.5-0.1,0.8-0.3,1.3-0.5c0.9-0.2,1.6-0.7,2-1.6
				c0.1-0.3,0.3-0.7,0.5-1.2c0.2-0.8,0.3-1.6,0.3-2.4c0-0.7,0-1.4,0.1-2.1c0-0.6,0.2-1,0.5-1.6c0.6-1,1.4-1.5,2.6-1.5
				c0.5,0,0.9,0,1.4,0.1c1,0.2,1.7,0.8,2,1.9c0.2,0.7,0.3,1.3,0.6,2c0.2,0.7,0.3,1.4,0.7,2.1c0.1,0.1,0.2,0.2,0.2,0.5
				c0.3,0.5,0.8,0.7,1.3,0.7c0.5,0,1-0.1,1.5-0.1c0.5,0,0.9-0.1,1.5,0c0.8,0.1,1.3,0.6,1.5,1.3c0.3,0.9,0.1,1.7-0.5,2.6
				c-0.3,0.3-0.7,0.7-0.9,1c-0.9,1.2-0.7,2.9,0.6,3.6c0.5,0.3,1,0.6,1.5,0.8c0.5,0.2,0.8,0.5,1.3,0.7c0.6,0.3,0.8,0.9,0.9,1.6
				c0,0,0,0,0,0.1c0,0.2,0,0.5,0,0.7c-0.1,0.2-0.1,0.5-0.2,0.7c-0.2,0.6-0.7,0.9-1.2,1.4c-0.5,0.3-0.8,0.7-1.3,1
				c-0.5,0.5-0.7,0.9-0.6,1.5c0.1,0.5,0.2,0.9,0.5,1.4c0.3,0.8,0.6,1.7,0.5,2.7c-0.1,1.7-1.4,3.1-3.1,3.4c-0.2,0-0.5,0.1-0.7,0.1
				C63.9,285.6,63.7,285.6,63.6,285.6z M54.5,267.1C54.6,267.1,54.6,267.1,54.5,267.1c0.7,0,1.4,0,2,0h0.1c0.6-0.3,1.2-0.6,1.9-0.8
				c0.5-0.1,1-0.1,1.5-0.3c0.8-0.2,1.4-0.8,1.6-1.7c0-0.2,0.1-0.5,0.1-0.7c0.1-0.9-0.2-1.9-0.9-2.4c-0.9-0.9-2-1.3-3.2-1
				c-1.2,0.1-2,0.8-2.4,1.9c-0.2,0.6-0.3,1-0.5,1.6c-0.1,0.9-0.1,1.7-0.1,2.7C54.5,266.6,54.5,266.9,54.5,267.1z"/>
		</g>
		<g>
			<path d="M31.8,350.4c-0.1-1.5,0.4-3,1.5-4.3c1.9-2.2,4.9-2.3,6.9-0.1c2.1,2.3,2.1,6.4,0,8.7c-2.2,2.4-5.6,2.1-7.3-0.7
				C32.3,352.8,31.9,351.6,31.8,350.4z"/>
			<path d="M57.1,349.3c-0.1,1.8-0.9,3.6-2.7,5c-1.7,1.3-3.8,1.3-5.5,0.1c-2.1-1.5-3-3.7-2.8-6.3c0.1-1.4,0.8-2.3,2.2-2.4
				c2.2-0.2,4.4-0.2,6.6,0C56.5,345.9,57.1,347,57.1,349.3z"/>
			<path d="M78.8,353.9c-2.1,0-4.2-1.6-4.6-3.6c-0.4-1.6,0.3-3,1.9-3.2c1.7-0.2,3.6-0.2,5.3,0c1.7,0.2,2.4,1.7,1.9,3.3
				C82.8,352.4,80.8,353.9,78.8,353.9z"/>
			<path d="M65.6,348c1,0,2,0.2,3,0.4c1.3,0.4,1.6,1.4,0.8,2.5c-1.6,2.2-6.2,2.2-7.7,0c-0.8-1.1-0.5-2.2,0.8-2.5
				C63.6,348.1,64.6,348,65.6,348z"/>
		</g>
		<g>
			<path d="M11.1,431.3c0.3-0.1,0.6-0.1,0.9-0.2c0-0.1,0-0.2,0-0.2c0-2.7,0-5.4,0-8.1c0-0.2-0.1-0.3-0.2-0.3c-0.2,0-0.3-0.1-0.5-0.1
				c-0.2,0-0.2-0.1-0.2-0.2c0-0.1,0-0.2,0-0.2c2,0,4,0,6,0c0,1,0,1.9,0,2.9c-0.1,0-0.3,0-0.4,0c0,0-0.1-0.1-0.1-0.1
				c-0.2-0.6-0.5-1.3-0.7-1.9c0-0.1-0.1-0.2-0.2-0.2c-0.5,0-0.9,0-1.4,0c0,1.3,0,2.6,0,3.9c0.4,0,0.8,0,1.3,0
				c0.1-0.4,0.2-0.8,0.3-1.2c0.1,0,0.3,0,0.5,0c0,1.1,0,2.1,0,3.2c-0.1,0-0.3,0-0.5,0c-0.1-0.4-0.2-0.7-0.3-1.1
				c0-0.2-0.1-0.2-0.3-0.2c-0.3,0-0.7,0-1,0c0,1.3,0,2.6,0,4c0.4,0.1,0.8,0.1,1.2,0.2c0,0.1,0,0.3,0,0.5c-0.1,0-0.1,0-0.2,0
				c-1.3,0-2.6,0-3.9,0c-0.1,0-0.1,0-0.2,0C11.1,431.6,11.1,431.4,11.1,431.3z"/>
			<path d="M35.7,427.8c-0.7,0-1.3,0-1.9,0c0,0.1,0,0.1,0,0.2c0,1,0,2.1,0,3.1c0,0.1,0,0.2,0.2,0.2c0.1,0,0.1,0,0.2,0.1
				c0.3,0.1,0.3,0.1,0.3,0.5c-1.1,0-2.2,0-3.3,0c0-0.1,0-0.2,0-0.3c0-0.1,0.1-0.1,0.1-0.1c0.1-0.1,0.3-0.1,0.5-0.1
				c0.1,0,0.1-0.1,0.1-0.2c0-0.1,0-0.3,0-0.4c0-2.3,0-4.5,0-6.8c0-0.2,0-0.2-0.2-0.3c-0.2,0-0.3-0.1-0.5-0.1c0-0.1,0-0.2,0-0.4
				c1.1,0,2.2,0,3.3,0c0,0.1,0,0.2,0,0.3c0,0,0,0.1-0.1,0.1c-0.1,0-0.1,0-0.2,0.1c-0.4,0.1-0.4,0.1-0.4,0.5c0,1,0,1.9,0,2.9
				c0,0.1,0,0.1,0,0.2c0.6,0,1.3,0,1.9,0c0-0.1,0-0.1,0-0.2c0-1.1,0-2.1,0-3.2c0-0.1,0-0.2-0.2-0.2c0,0-0.1,0-0.1,0
				c-0.3-0.1-0.3-0.1-0.3-0.5c1.1,0,2.1,0,3.2,0c0,0,0,0,0,0.1c0,0.3,0,0.3-0.3,0.4c-0.4,0.1-0.4,0.1-0.4,0.5c0,2.3,0,4.6,0,6.9
				c0,0.2,0,0.3,0.2,0.3c0.1,0,0.1,0,0.2,0c0.3,0.1,0.3,0.1,0.3,0.5c-1.1,0-2.2,0-3.2,0c0,0,0,0,0,0c0-0.3,0-0.3,0.3-0.4
				c0.3-0.1,0.3-0.1,0.3-0.4c0-1,0-1.9,0-2.9C35.7,427.9,35.7,427.8,35.7,427.8z"/>
			<path d="M71.2,421.9c0.1,0,0.1,0,0.2,0c1.3,0,2.6,0,3.9,0c0.3,0,0.7,0,1,0.1c0.8,0.2,1.3,0.6,1.5,1.4c0.3,0.8,0.3,1.7,0.1,2.5
				c-0.3,1-1,1.7-2.1,1.8c-0.3,0-0.7,0-1,0c-0.2,0-0.3,0-0.5,0c0,1.1,0,2.2,0,3.4c0.4,0.1,0.7,0.1,1.1,0.2c0,0.1,0,0.3,0,0.4
				c-1.4,0-2.8,0-4.2,0c0-0.1,0-0.3,0-0.4c0.3-0.1,0.6-0.1,0.9-0.2c0-0.1,0-0.1,0-0.2c0-2.7,0-5.5,0-8.2c0-0.1,0-0.2-0.2-0.2
				c-0.2,0-0.4-0.1-0.6-0.1c-0.1,0-0.2-0.1-0.2-0.2C71.2,422.1,71.2,422,71.2,421.9z M74.3,424.8c0,0.1,0,0.1,0,0.2
				c0,0.6,0,1.3,0,1.9c0,0.1,0,0.1,0.1,0.2c0.3,0.1,0.9-0.1,1.1-0.4c0.1-0.1,0.1-0.3,0.2-0.4c0.1-0.3,0.1-0.7,0.1-1
				c0-0.6,0-1.2-0.1-1.8c-0.1-0.6-0.4-0.8-1-0.8c0,0-0.1,0-0.1,0c-0.1,0-0.2,0-0.2,0.2C74.3,423.4,74.3,424.1,74.3,424.8z"/>
			<path d="M47.9,423.5c0-0.1,0-0.2,0-0.2c0,0,0-0.1,0-0.1c0.1,0,0.1,0,0.2,0c1.1,0,2.2,0,3.3,0c0.4,0,0.8,0.1,1.1,0.2
				c0.9,0.2,1.5,0.8,1.7,1.6c0.6,1.6,0.6,3.2,0.1,4.8c-0.4,1.3-1.4,2.1-2.8,2.1c-1.2,0-2.4,0-3.5,0c0,0,0,0-0.1,0c0-0.1,0-0.2,0-0.3
				c0-0.1,0.1-0.1,0.1-0.1c0.1-0.1,0.3-0.1,0.4-0.1c0.1,0,0.2-0.1,0.2-0.2c0-2.2,0-4.4,0-6.6c0-0.2,0-0.4,0-0.6c0-0.1,0-0.1-0.1-0.2
				C48.3,423.6,48.1,423.5,47.9,423.5z M50.7,431.1c0.2,0,0.5,0,0.7,0c0.5,0,0.8-0.3,1-0.7c0.1-0.4,0.2-0.8,0.3-1.1
				c0.1-1.2,0.1-2.4,0-3.6c0-0.5-0.1-0.9-0.3-1.3c-0.1-0.3-0.4-0.5-0.7-0.6c-0.3-0.1-0.6-0.1-0.9-0.1
				C50.7,426.2,50.7,428.6,50.7,431.1z"/>
			<path d="M17.8,427.1c0-0.4,0.1-1.1,0.3-1.8c0.5-1.6,1.7-2.5,3.4-2.4c0.4,0,0.7,0.1,1.1,0.1c1,0.3,1.6,1,1.9,2
				c0.3,1,0.3,2,0.3,3.1c0,0.6-0.2,1.2-0.4,1.8c-0.6,1.2-1.5,1.8-2.8,1.9c-0.5,0-1,0-1.5-0.2c-1-0.3-1.6-1-1.9-2
				C17.9,429,17.8,428.2,17.8,427.1z M22.7,427.4c-0.1-0.8-0.1-1.6-0.2-2.3c0-0.4-0.2-0.7-0.3-1.1c-0.1-0.3-0.4-0.5-0.7-0.5
				c-0.5,0-0.9,0.2-1.1,0.7c-0.2,0.5-0.3,1.1-0.4,1.6c-0.1,1.2-0.1,2.4,0,3.6c0.1,0.5,0.1,1,0.4,1.5c0.4,0.7,1.3,0.7,1.7,0.1
				c0.1-0.2,0.2-0.5,0.3-0.7C22.7,429.3,22.7,428.3,22.7,427.4z"/>
			<path d="M97.2,427.4c0-0.9,0.1-1.7,0.5-2.5c0.5-1.2,1.5-1.8,2.8-1.9c0.5,0,1,0,1.4,0.2c1,0.3,1.6,1,1.9,2c0.3,1,0.3,2,0.3,3.1
				c0,0.6-0.2,1.3-0.4,1.8c-0.5,1.2-1.5,1.8-2.8,1.9c-0.5,0-1,0-1.5-0.2c-1-0.3-1.6-1-1.9-2C97.2,429,97.2,428.2,97.2,427.4z
				 M99.2,427.8c0,0.4,0.1,1.2,0.2,1.9c0,0.4,0.1,0.8,0.4,1.2c0.2,0.4,0.6,0.6,1.1,0.5c0.4-0.1,0.6-0.4,0.7-0.7
				c0.2-0.5,0.3-1.1,0.4-1.7c0.1-1.2,0.1-2.3,0-3.5c-0.1-0.5-0.1-1-0.4-1.5c-0.4-0.7-1.3-0.7-1.7-0.1c-0.1,0.2-0.2,0.5-0.3,0.7
				C99.3,425.5,99.3,426.5,99.2,427.8z"/>
			<path d="M63.2,428.9C63.2,428.9,63.2,428.9,63.2,428.9c0.5-0.1,0.5-0.1,0.6,0.4c0.1,0.5,0.2,0.9,0.3,1.4c0,0.1,0.1,0.1,0.1,0.2
				c0.5,0.3,1.1,0.3,1.6,0.2c0.7-0.1,1.1-0.7,1-1.4c-0.1-0.5-0.3-0.9-0.6-1.2c-0.3-0.3-0.7-0.6-1.1-0.9c-0.5-0.4-1-0.7-1.4-1.1
				c-1.2-1.4-0.9-4,1.6-4.7c0.7-0.2,1.4-0.1,2.1-0.1c0.2,0,0.4,0.1,0.6,0.1c0,0,0.1,0.1,0.1,0.1c0,0.8,0,1.7,0,2.5
				c-0.2,0-0.3,0-0.5,0c-0.1-0.6-0.3-1.2-0.4-1.8c0-0.1-0.1-0.2-0.2-0.2c-0.3,0-0.7-0.1-1-0.1c-0.8,0-1.2,0.6-1,1.4
				c0.1,0.4,0.3,0.7,0.7,1c0.3,0.3,0.7,0.5,1,0.8c0.4,0.3,0.8,0.6,1.2,1c1.3,1.4,0.9,4.2-1.5,5c-0.6,0.2-1.2,0.2-1.8,0.2
				c-0.5,0-0.9-0.2-1.4-0.2c-0.1,0-0.1-0.1-0.1-0.2C63.2,430.6,63.2,429.8,63.2,428.9C63.2,429,63.2,429,63.2,428.9z"/>
			<path d="M54.6,423.1c1.8,0,3.5,0,5.3,0c0,0.8,0,1.6,0,2.5c-0.1,0-0.2,0-0.3,0c-0.1,0-0.2,0-0.2-0.1c-0.2-0.5-0.4-1.1-0.6-1.6
				c0-0.1-0.1-0.2-0.2-0.2c-0.4,0-0.8,0-1.2,0c0,1.1,0,2.3,0,3.4c0.3,0,0.7,0,1,0c0,0,0.1-0.1,0.1-0.1c0.1-0.3,0.2-0.6,0.2-0.9
				c0.1,0,0.3,0,0.4,0c0,0.9,0,1.8,0,2.8c-0.1,0-0.2,0-0.4,0c-0.1-0.3-0.2-0.6-0.2-1c0-0.2-0.1-0.2-0.3-0.2c-0.3,0-0.6,0-0.9,0
				c0,1.2,0,2.3,0,3.5c0.1,0,0.2,0,0.3,0c0.4,0,0.8,0,1.1,0c0.1,0,0.2,0,0.2-0.1c0.2-0.5,0.4-1,0.6-1.6c0.1-0.2,0.1-0.3,0.3-0.2
				c0.1,0,0.1,0,0.2,0c0,0.8,0,1.7,0,2.5c-1.8,0-3.7,0-5.5,0c0-0.1,0-0.2,0-0.3c0,0,0.1-0.1,0.1-0.1c0.2,0,0.4-0.1,0.5-0.1
				c0.1,0,0.2-0.1,0.2-0.2c0-1.1,0-2.3,0-3.4c0-1.3,0-2.5,0-3.8c0-0.1,0-0.2-0.2-0.2c-0.1,0-0.3-0.1-0.4-0.1c-0.2,0-0.2-0.1-0.2-0.3
				C54.6,423.2,54.6,423.2,54.6,423.1z"/>
			<path d="M88.8,423.1c0.7,0,1.3,0,2,0c0,0,0,0.1,0,0.1c0,0.2,0,0.3-0.2,0.3c-0.4,0.1-0.4,0.1-0.4,0.5c0,1.8,0,3.6,0,5.4
				c0,0.3,0,0.6-0.1,1c-0.2,0.8-0.7,1.3-1.4,1.4c-0.7,0.2-1.4,0.2-2.1,0c-0.8-0.2-1.2-0.7-1.4-1.5c-0.1-0.4-0.1-0.8-0.1-1.2
				c0-1.7,0-3.5,0-5.2c0-0.2,0-0.3-0.2-0.3c-0.1,0-0.1,0-0.2-0.1c-0.3-0.1-0.3-0.1-0.3-0.4c1.1,0,2.3,0,3.4,0c0,0.1,0,0.2,0,0.4
				c-0.2,0.1-0.5,0.1-0.7,0.2c0,0.1,0,0.1,0,0.2c0,2,0,3.9,0,5.9c0,0.2,0,0.4,0,0.6c0.1,0.8,0.5,1.1,1.3,1c0.7-0.1,1.1-0.5,1.2-1.2
				c0-0.2,0-0.5,0-0.7c0-1.9,0-3.7,0-5.6c0-0.1,0-0.2-0.2-0.2c-0.1,0-0.2-0.1-0.4-0.1c-0.2,0-0.2-0.1-0.2-0.3
				C88.8,423.2,88.8,423.2,88.8,423.1z"/>
			<path d="M81.1,431.7C81.1,431.7,81.1,431.7,81.1,431.7c0-0.4,0-0.4,0.3-0.4c0.2,0,0.3-0.1,0.5-0.1c0,0,0-0.1,0-0.1
				c-0.2-0.6-0.4-1.2-0.6-1.8c0-0.1-0.1-0.2-0.2-0.2c-0.6,0-1.1,0-1.7,0c-0.2,0.7-0.3,1.4-0.5,2.1c0.2,0,0.4,0.1,0.6,0.1
				c0.3,0.1,0.3,0.1,0.2,0.3c0,0,0,0.1,0,0.1c-0.8,0-1.5,0-2.3,0c0-0.1,0-0.2,0-0.3c0,0,0.1-0.1,0.1-0.1c0,0,0.1,0,0.1,0
				c0.4,0,0.6-0.3,0.7-0.6c0.6-2.5,1.3-4.9,1.9-7.4c0-0.1,0.1-0.2,0.2-0.2c0.3,0,0.7,0,1,0c0,0.1,0,0.1,0.1,0.2
				c0.8,2.6,1.6,5.1,2.3,7.7c0,0.1,0.1,0.2,0.2,0.2c0.1,0,0.2,0,0.2,0.1c0.3,0.1,0.3,0.1,0.3,0.5C83.4,431.7,82.3,431.7,81.1,431.7z
				 M81,428.5c-0.3-0.9-0.5-1.8-0.8-2.7c0,0,0,0,0,0c-0.2,0.9-0.4,1.8-0.7,2.7C80,428.5,80.5,428.5,81,428.5z"/>
			<path d="M46,431.7c-1.2,0-2.3,0-3.5,0c0-0.1,0-0.3,0-0.4c0.2-0.1,0.5-0.1,0.8-0.2c-0.2-0.7-0.4-1.3-0.7-2c0,0-0.1-0.1-0.1-0.1
				c-0.6,0-1.1,0-1.7,0c-0.2,0.7-0.3,1.4-0.5,2.1c0.2,0,0.4,0.1,0.7,0.1c0.3,0.1,0.3,0.1,0.2,0.3c0,0,0,0.1,0,0.1
				c-0.7,0-1.5,0-2.2,0c0,0,0,0,0,0c0-0.3,0-0.4,0.3-0.4c0.3-0.1,0.4-0.2,0.4-0.4c0.6-2.5,1.3-5,2-7.6c0-0.2,0.1-0.2,0.3-0.2
				c0.3,0,0.6,0,0.8,0c0.1,0,0.2,0,0.2,0.2c0.8,2.6,1.6,5.2,2.3,7.7c0,0.1,0.1,0.2,0.2,0.2c0.1,0,0.1,0,0.2,0
				C46.1,431.3,46.1,431.3,46,431.7z M42.5,428.5c-0.3-0.9-0.5-1.8-0.8-2.7c0,0,0,0,0,0c-0.2,0.9-0.4,1.8-0.7,2.7
				C41.5,428.5,42,428.5,42.5,428.5z"/>
			<path d="M30.4,429.1c0,0.9,0,1.7,0,2.6c-1.7,0-3.4,0-5.2,0c0,0,0,0,0,0c0-0.3,0-0.3,0.3-0.4c0.1,0,0.3-0.1,0.4-0.1
				c0-0.1,0-0.1,0-0.2c0-2.4,0-4.7,0-7.1c0-0.2-0.1-0.3-0.2-0.3c-0.2,0-0.3-0.1-0.5-0.1c0-0.1,0-0.2,0-0.4c1.1,0,2.3,0,3.4,0
				c0,0,0,0,0,0.1c0,0.3,0,0.3-0.3,0.4c-0.2,0-0.4,0-0.4,0.1c-0.1,0.1,0,0.3,0,0.5c0,2.3,0,4.5,0,6.8c0,0.2,0,0.2,0.2,0.2
				c0.3,0,0.6,0,0.9,0c0.1,0,0.2,0,0.2-0.2c0.2-0.5,0.4-1.1,0.6-1.6C30,429.1,30,429.1,30.4,429.1z"/>
			<path d="M94.2,431.1c0.4,0,0.8,0,1.2,0c0,0,0.1-0.1,0.1-0.1c0.2-0.5,0.4-1.1,0.6-1.6c0.1-0.3,0.1-0.3,0.5-0.3c0,0.9,0,1.7,0,2.6
				c-1.7,0-3.4,0-5.1,0c0-0.1,0-0.2,0-0.2c0-0.1,0-0.2,0.1-0.2c0.2,0,0.4-0.1,0.6-0.1c0-2.5,0-5,0-7.5c-0.2,0-0.3-0.1-0.5-0.1
				c-0.2,0-0.2-0.1-0.2-0.3c0,0,0-0.1,0-0.1c1.2,0,2.3,0,3.4,0c0,0.1,0,0.2,0,0.4c-0.2,0-0.4,0.1-0.6,0.1c-0.1,0-0.1,0.1-0.1,0.2
				C94.2,426.2,94.2,428.6,94.2,431.1C94.2,431.1,94.2,431.1,94.2,431.1z"/>
			<path d="M70.2,431.1c0,0.5-0.4,0.9-0.9,0.9c-0.5,0-0.9-0.4-0.9-0.9c0-0.5,0.4-0.9,0.9-0.9C69.9,430.1,70.3,430.6,70.2,431.1z"/>
		</g>
	</g>
	<g>
		<g>
			<path d="M126.2,108.9v-3.6l-1.1,0.5c-0.2,0.5-0.2,1-0.2,1.6c0.1,0.6,0.3,1.3,0.8,1.9L126.2,108.9 M129.4,101.4
				c0.3,0,0.8,0.2,1,0.5c0.6,0.6,0.5,1.6-0.2,2.1l-0.1,0.1c-0.2,0.2-0.6,0.2-0.9,0.2v1.7l0.9,0.6l-0.9,0.6v2.4
				c0.6-0.5,1.1-0.9,1.3-1.6c0,0,0-0.1,0.1-0.2c0,0.6-0.1,1.1-0.3,1.7c-0.2,0.6-0.6,1.1-1.2,1.4c-0.8,0.5-1.7,0.6-2.5,0.5
				c-1-0.2-1.9-0.8-2.5-1.7c-1.1-1.9-0.6-4.2,1.3-5.5c0.2-0.1,0.5-0.2,0.8-0.3c0.1-0.1,0.3-0.1,0.5-0.1c-0.1,0.1-0.2,0.2-0.5,0.2
				c-0.5,0.3-0.8,0.8-1,1.3l2.7-1.2v3.8l-2.2,1.1c0.5,0.5,1,0.8,1.7,0.9c0.6,0.1,1.2,0,1.7-0.3v-2.5l-0.9-0.6l0.9-0.6v-1.7
				c-0.5-0.1-0.9-0.1-1.3-0.3c-0.5-0.1-2.1-0.6-2.4-0.6c-0.2-0.1-0.6,0-0.8,0.1c-0.2,0.2-0.3,0.5-0.2,0.8c0,0.1,0.1,0.2,0.2,0.3
				c-0.1,0-0.2-0.1-0.2-0.1c-0.3-0.2-0.6-0.6-0.6-1c0-0.6,0.2-1.1,0.6-1.4c0.5-0.3,0.9-0.5,1.4-0.3c0.8,0.1,1.9,0.6,2.8,0.8
				c0.3,0.1,0.6,0.1,0.9,0c0.2-0.1,0.3-0.5,0.1-0.6c-0.2-0.3-0.6-0.3-0.9-0.5C129,101.4,129.2,101.4,129.4,101.4L129.4,101.4z"/>
			<path d="M139.9,108l-1.2,0.9v-3L139.9,108 M139.9,105.2c0,0-0.8,0.5-1.3,0.8c-0.6,0.3-1.3,0.8-1.3,0.8v3.5l-0.5,0.5l0.1,0.1
				l0.5-0.5l1.6,1.3l2.7-2.1l-0.1-0.1l-1.4,1.1l-1.2-1.1V109l2.5-1.7L139.9,105.2z"/>
			<path d="M133,112.9c0.6,0.1,1.2,0,1.7-0.2c0.8-0.5,1.2-1.2,1.2-2.1v-1.2v-2.8l0.6-0.5l-0.1-0.1l-0.6,0.3l-1.2-1.3l-1.6,1.3v-4.4
				l-1.9,1.4c0.2,0.1,0.3,0.2,0.3,0.5v6.3l-0.8,0.6l0.1,0.1l0.3-0.3l1.1,1l1.7-1.3l-0.1-0.1l-0.5,0.3l-0.5-0.5v-3.5l0.5-0.5l0.8,0.9
				c0,0,0,2.2,0,3c0.1,0.8-0.1,1.6-0.5,2.2C133.7,112.6,133.3,112.9,133,112.9"/>
			<path d="M144.8,112.6c-0.6-0.1-1-0.5-1-0.8c0-0.3,0.2-0.6,0.6-0.6c0.5,0,0.9,0.2,1.2,0.6l1.6-1.7l-0.1-0.1l-0.5,0.5
				c-0.5-0.5-1-0.8-1.7-0.9v-5.3l4.1,7.5c0,0,0,0.1,0.2,0.1c0.1,0,0.1-0.1,0.1-0.1v-7.5c0.5,0,0.8-0.2,1.1-0.5
				c0.6-0.5,0.6-1.1,0.3-1.7c0,0.5-0.5,0.8-0.9,0.8c-0.4,0-0.8-0.2-1-0.5l-1.6,1.7l0.1,0.1l0.5-0.6c0.3,0.3,0.9,0.6,1.3,0.6v4.4
				l-3-5.5c-0.2-0.6-0.8-0.9-1.3-0.9c-0.6,0-1.2,0.6-1.3,1.2c-0.1,0.2-0.1,0.6,0,0.8c0,0,0.1-0.6,0.6-0.6c0.5,0,0.6,0.3,0.8,0.6v1.6
				c-0.5,0-1.4,0.1-1.6,1.2c0,0.3,0.2,0.8,0.5,1c0.1,0.1,0.3,0.2,0.6,0.2c-0.2-0.1-0.3-0.3-0.2-0.6c0.1-0.3,0.8-0.3,0.8-0.2v2.2
				c-0.8-0.1-1.4,0.3-1.9,0.9c-0.3,0.5-0.2,1.1,0,1.6C143.6,112.5,144.1,112.7,144.8,112.6"/>
			<path d="M153.5,108l-1.2,0.9v-3L153.5,108 M153.4,105.2c0,0-0.8,0.5-1.3,0.8c-0.6,0.3-1.3,0.6-1.3,0.6v3.5l-0.5,0.5l0.1,0.1
				l0.5-0.5l1.6,1.3l2.7-2.1l-0.1-0.1l-1.4,1.1l-1.2-1.1v-0.5l2.5-1.7L153.4,105.2z"/>
			<path d="M157.2,111.6l-1.3-1.1l-0.6,0.5l-0.1-0.1l0.6-0.5v-3c0-1.2-1.1-0.9-1.1-2.2c0.1-0.8,0.8-1.3,1.4-1.3c0,0-0.6,0.3-0.5,0.8
				c0.2,0.8,1.4,0.8,1.4,1.7v3.5l0.9,0.8l0.2-0.2v-3.6l-0.5-0.5l1.3-1.1l1.2,1l-0.5,0.5v3.3l1.1,0.9l0.2-0.1v-3.9l-0.5-0.5l1.3-1.2
				l1.2,1l0.5-0.5l0.1,0.1l-1.1,1v3.3l-2.8,1.7l-1.4-1.1L157.2,111.6"/>
			<path d="M214,108l-1.2,0.9v-3L214,108 M213.9,105.2c0,0-0.8,0.5-1.3,0.8c-0.6,0.3-1.3,0.6-1.3,0.6v3.5l-0.5,0.5l0.1,0.1l0.5-0.5
				l1.6,1.3l2.7-2.1l-0.1-0.1l-1.4,1.1l-1.2-1.1v-0.5l2.5-1.7L213.9,105.2z"/>
			<polyline points="201.5,106.6 201.6,106.7 202.1,106.3 202.8,107.1 202.8,109.9 202.5,110.2 203.6,111.6 204.7,110.4 
				204.3,109.9 204.3,106.5 204.6,106.3 205.4,107.1 205.4,110.1 205.1,110.4 206.2,111.5 207.3,110.4 206.9,109.9 206.9,106.5 
				207.1,106.1 208.1,107.1 208.1,109.9 207.7,110.2 209,111.6 210.6,110.1 210.5,110.1 210.2,110.4 209.5,109.7 209.5,106.5 
				210.1,106 210.1,106 209.5,106.4 208.4,105.2 206.8,106.4 205.7,105.2 204.1,106.4 203,105.2 201.5,106.6 			"/>
			<polyline points="198.3,106.5 198.3,106.6 198.7,106.3 199.4,107.1 199.4,110.2 198.9,110.7 198.9,110.7 199.5,110.4 
				200.5,111.6 202.1,110.2 201.9,110.2 201.5,110.5 201,109.8 201,106.6 201.4,106.1 201.4,106 200.8,106.5 199.7,105.2 
				198.3,106.5 			"/>
			<polyline points="198.7,103.8 199.8,102.7 200.7,103.8 199.6,104.8 198.7,103.8 			"/>
			<path d="M193.9,108.9v-3.6l-1.1,0.5c-0.2,0.5-0.2,1-0.2,1.6c0.1,0.6,0.3,1.3,0.8,1.9L193.9,108.9 M197.2,101.4
				c0.3,0,0.8,0.2,1,0.5c0.6,0.6,0.5,1.6-0.2,2.1l-0.1,0.1c-0.2,0.2-0.6,0.2-0.9,0.2v1.7l0.9,0.6l-0.9,0.6v2.4
				c0.6-0.5,1.1-0.9,1.3-1.6c0,0,0-0.1,0.1-0.2c0,0.6-0.1,1.1-0.3,1.7c-0.2,0.6-0.6,1.1-1.2,1.4c-0.8,0.5-1.7,0.6-2.5,0.5
				c-1-0.2-1.9-0.8-2.5-1.7c-0.5-0.6-0.6-1.4-0.6-2.2c0.1-1.6,1.1-3,2.7-3.6c0.1-0.1,0.3-0.1,0.5-0.1c-0.1,0.1-0.2,0.2-0.5,0.2
				c-0.5,0.3-0.8,0.8-1,1.3l2.7-1.2v3.8l-2.2,1.1c0.5,0.5,1,0.8,1.7,0.9c0.6,0.1,1.2,0,1.7-0.3v-2.5l-0.9-0.6l0.9-0.6v-1.7
				c-0.5-0.1-0.9-0.1-1.3-0.3c-0.5-0.1-2.1-0.6-2.4-0.6c-0.2-0.1-0.6,0-0.8,0.1c-0.2,0.2-0.3,0.5-0.2,0.8c0,0.1,0.1,0.2,0.2,0.3
				c-0.1,0-0.2-0.1-0.2-0.1c-0.3-0.2-0.6-0.6-0.6-1c0-0.6,0.2-1.1,0.6-1.4c0.4-0.3,0.9-0.5,1.4-0.3c0.8,0.1,1.9,0.6,2.8,0.8
				c0.3,0.1,0.6,0.1,0.9,0c0.2-0.1,0.3-0.5,0.1-0.6c-0.2-0.3-0.6-0.3-0.9-0.5C196.7,101.4,196.9,101.4,197.2,101.4L197.2,101.4z"/>
			<path d="M217.3,105.8v1.7l0.6,0.6c0.6-0.6,1.2-1.2,1.7-1.9c-0.3,0.5-0.8,0.6-1.3,0.6C217.8,106.5,217.5,106.1,217.3,105.8
				 M215.9,110.4c0.3-0.6,0.9-0.8,1.4-0.6c0.6,0.1,1,0.6,1.2,1.1v-2.2l-0.6-0.6C217.3,108.8,216.1,109.8,215.9,110.4L215.9,110.4z
				 M216.8,112.1c-0.6,0-1-0.3-1.1-0.9c-0.2-0.8,0.3-1.3,1.1-2.1l-1-0.9v-1.7c0,0,0.6-0.3,1.2-0.6s1.1-0.6,1.1-0.6s0.5,0.6,0.9,0.5
				c0.3,0,0.6-0.2,0.6-0.6v-0.1c0.1,0.2,0.5,0.9-0.8,2.4l1,0.9v2.1c-0.8,0.5-1.6,0.9-2.4,1.4c0,0-0.6-0.8-1.2-0.5
				C216.2,111.4,216.3,111.8,216.8,112.1L216.8,112.1z"/>
			<path d="M175.2,109.6l1.3,1.2v-3.6l-1.3-1.2V109.6 M178,106.6l0.5-0.5l0.1,0.1L178,106.6l0.1,3.5c0,0-0.9,0.5-1.4,0.8
				s-1.2,0.8-1.2,0.8l-1.6-1.3l-0.5,0.3l-0.1-0.1l0.5-0.3v-3.6l0,0c0,0,0.8-0.3,1.3-0.6c0.6-0.3,1.2-0.6,1.2-0.6L178,106.6z"/>
			<path d="M181.1,106.3l1-1c0.1,0.1,0.2,0.1,0.2,0.2c0.2,0.1,0.5,0.1,0.6,0c0.1-0.1,0.2-0.1,0.3-0.2c0.1,0.6-0.2,1.2-0.8,1.6
				C182.3,106.8,181.8,107.1,181.1,106.3l0.1,3.8l0.6,0.6l0.6-0.5l0.1,0.1l-1.7,1.3l-1.2-1.1l-0.5,0.5l-0.1-0.1l0.6-0.6V107
				l-0.6-0.6l-0.5,0.5l-0.1-0.1l1.6-1.4L181.1,106.3"/>
			<path d="M185.3,107.8l1.9-2.7c0.2,0.2,0.5,0.3,0.6,0.5c0.5,0,0.8-0.1,1.1-0.5c-0.1,0.6-0.5,1.6-1.2,1.7c-0.5,0-0.9-0.1-1.3-0.5
				l-0.1,0.2l2.5,3.9l0.6-0.5l0.1,0.1l-1.7,1.6L185.3,107.8"/>
			<path d="M183.8,104.1c0-0.6-0.2-0.9-0.6-0.9l2-1.4v8l0,0l0.6,0.6l0.5-0.3l0.1,0.1l-1.7,1.4l-1.1-1l-0.5,0.3l-0.1-0.1l0.8-0.6
				V104.1"/>
			<path d="M170.8,106.4c-0.1,0.1-0.3,0.2-0.6,0.2c-0.2,0-0.5-0.1-0.6-0.2v1.1c0.3-0.3,0.8-0.3,1.1,0l0,0V106.4 M170.8,104.1
				l-0.8-0.6l-0.3,0.3v2.5c0.1,0.2,0.3,0.3,0.6,0.3c0.2,0,0.5-0.1,0.6-0.3V104.1z M169.6,111.4c0.3,0.1,0.6,0,0.8-0.1
				c0.2-0.2,0.3-0.5,0.3-0.8v-2.8c-0.1-0.2-0.3-0.2-0.6-0.3c-0.2,0-0.5,0.1-0.6,0.3V111.4z M166.9,104.1c0-0.6-0.2-0.9-0.6-0.9
				c-0.6,0-0.6,0.6-0.6,0.6c0-0.5,0.1-0.8,0.3-1.1c0.3-0.5,1-0.6,1.6-0.5c0.6,0.1,1.1,0.6,1,1.3v7.5c0,0,0.3,0,0.6,0.1
				c0.2,0,0.5,0.1,0.5,0.1v-9h0.1v1.2l1.7-1.3l1.2,1.1l0.6-0.5l0.1,0.1l-0.6,0.5v7.1c0,0.5-0.1,0.9-0.6,1.2c-1,0.6-2.1-0.1-3.1-0.2
				c-0.8-0.1-2-0.2-2.2,0.5c-0.1,0.3,0,0.6,0.2,0.8c0.6,0.5,3.8-0.8,4.9-0.3c0.6,0.2,1,0.9,0.8,1.6l0,0c-0.2,0.9-1.4,1.1-1.4,1.1
				c0.3-0.2,0.5-0.6,0.5-0.9c-0.1-0.2-0.2-0.3-0.9-0.3c-1.3,0.1-2.9,0.8-4,0.3c-0.6-0.3-0.9-0.9-0.9-1.6c0-1,1.1-1.3,1.1-1.3v-3.6
				c0-0.1-0.6-0.1-0.8,0.1c-0.2,0.5,0.2,0.6,0.2,0.6c-0.2,0-0.6-0.1-0.6-0.3c-0.3-0.3-0.3-0.9-0.1-1.3c0.3-0.5,0.8-0.6,1.2-0.6
				L166.9,104.1z"/>
		</g>
		<g>
			<path d="M146.8,32c0-3.1,0-6.1,0-9.2c0.9,0,1.7,0,2.6,0c0,0.1,0,0.1,0,0.2c0,5,0,10,0,15c0,0.2-0.1,0.3-0.3,0.3
				c-0.8,0.1-1.6,0.2-2.4,0.3c-0.2,0-0.2,0-0.3-0.2c-0.9-2.7-1.9-5.4-2.8-8.1c0-0.1-0.1-0.1-0.1-0.2c0,2.9,0,5.9,0,8.9
				c-0.9,0.1-1.7,0.2-2.6,0.4c0-5.5,0-11,0-16.6c0.1,0,0.1,0,0.2,0c0.7,0,1.3,0,2,0c0.2,0,0.2,0.1,0.3,0.2c1,2.9,2.1,5.8,3.2,8.7
				C146.7,31.8,146.7,31.9,146.8,32C146.7,32,146.8,32,146.8,32z"/>
			<path d="M193.4,22.7c0.9,0,1.8,0,2.7,0c0.1,0,0.2,0.1,0.2,0.2c0.5,1.3,1,2.7,1.5,4c0,0,0,0.1,0.1,0.2c0.1-0.3,0.2-0.5,0.3-0.8
				c0.5-1.1,1-2.3,1.5-3.4c0-0.1,0.1-0.2,0.2-0.2c0.9,0,1.8,0,2.7,0c-0.1,0.3-0.3,0.6-0.4,0.9c-1,2.2-1.9,4.5-2.9,6.7
				c0,0.1,0,0.3,0,0.4c1.1,2.7,2.1,5.5,3.2,8.2c0,0.1,0.1,0.2,0.1,0.3c-0.4-0.1-0.8-0.1-1.2-0.2c-0.5-0.1-1.1-0.1-1.6-0.2
				c-0.2,0-0.2-0.1-0.3-0.2c-0.6-1.5-1.1-2.9-1.7-4.4c0-0.1-0.1-0.2-0.1-0.3c0,0.1-0.1,0.2-0.1,0.2c-0.6,1.3-1.2,2.7-1.7,4
				c-0.1,0.1-0.1,0.2-0.3,0.2c-0.8-0.1-1.7-0.2-2.5-0.3c0-0.1,0.1-0.2,0.1-0.3c1-2.4,2.1-4.8,3.1-7.2c0.1-0.1,0.1-0.3,0-0.4
				C195.3,27.7,194.4,25.2,193.4,22.7C193.5,22.9,193.4,22.8,193.4,22.7z"/>
			<path d="M159.1,37.5c-2.4,0.2-4.8,0.4-7.2,0.5c0-5.1,0-10.1,0-15.2c2.4,0,4.8,0,7.2,0c0,0.8,0,1.7,0,2.6c-1.5,0-3,0-4.6,0
				c0,1.2,0,2.3,0,3.5c1.2,0,2.3,0,3.5,0c0,0.8,0,1.7,0,2.5c-1.2,0-2.3,0-3.5,0c0,1.3,0,2.6,0,3.9c1.5-0.1,3-0.2,4.6-0.3
				C159.1,35.8,159.1,36.6,159.1,37.5z"/>
			<path d="M170.5,37.1c0-4.8,0-9.6,0-14.4c2.4,0,4.8,0,7.2,0c0,0.9,0,1.7,0,2.6c-1.5,0-3.1,0-4.6,0c0,1.1,0,2.2,0,3.3
				c0.1,0,0.2,0,0.3,0c1,0,2,0,3,0c0.2,0,0.2,0,0.2,0.2c0,0.8,0,1.5,0,2.3c-0.1,0-0.2,0-0.3,0c-1,0-2,0-3,0c-0.2,0-0.3,0-0.3,0.3
				c0,1.8,0,3.6,0,5.4c0,0.1,0,0.2,0,0.3C172.2,37.1,171.3,37.1,170.5,37.1z"/>
			<path d="M160.8,25.3c0-0.9,0-1.7,0-2.6c2.7,0,5.3,0,8,0c0,0.8,0,1.7,0,2.6c-0.9,0-1.8,0-2.7,0c0,4,0,7.9,0,11.9
				c-0.9,0-1.7,0.1-2.6,0.1c0-4,0-8,0-11.9C162.6,25.3,161.7,25.3,160.8,25.3z"/>
			<path d="M182,34.8c1.5,0.1,3,0.2,4.5,0.3c0,0.9,0,1.7,0,2.5c-2.3-0.1-4.7-0.2-7-0.4c0-4.8,0-9.6,0-14.5c0.8,0,1.7,0,2.6,0
				C182,26.8,182,30.8,182,34.8z"/>
			<path d="M188.6,22.8c0.9,0,1.7,0,2.6,0c0,5.1,0,10.1,0,15.2c-0.9-0.1-1.7-0.1-2.6-0.2C188.6,32.8,188.6,27.8,188.6,22.8z"/>
		</g>
		<g>
			<path d="M164.3,275.6c-0.4-0.1-0.6-0.3-0.8-0.5c-0.1-0.2-0.2-0.4-0.2-0.9v-14.4c0-0.3-0.1-0.4-0.3-0.4c-0.1,0-0.1,0-0.2,0
				l-2.9,1.6c-0.2,0.1-0.3,0.3-0.3,0.4c0,0.2,0.1,0.4,0.4,0.4c0.1,0,0.1,0,0.2,0.1c0.6,0.1,0.6,0.4,0.6,1.4v11c0,0.6,0,0.7-0.1,0.9
				c0,0,0,0.1-0.1,0.1c-0.1-0.1-0.2-0.2-0.3-0.3c-0.3-0.3-0.3-0.5-0.6-1.2l-5.3-13.5c-0.1-0.3-0.2-0.4-0.2-0.4
				c-0.1-0.1-0.2-0.1-0.3-0.1h-1.6c-0.3,0-0.4,0.1-0.6,0.6l-5.3,13.5c-0.3,0.7-0.4,0.9-0.6,1.2c-0.3,0.4-0.6,0.5-1,0.6
				s-0.6,0.2-0.6,0.5c0,0.3,0.2,0.5,0.6,0.5h3.4c0.5,0,0.6-0.2,0.6-0.5c0-0.3-0.2-0.5-0.6-0.5c-0.6-0.1-0.8-0.2-0.8-0.6
				c0-0.3,0.1-0.5,0.4-1.1l0.6-1.6c0.2-0.4,0.3-0.6,0.3-0.6c0.1-0.1,0.3-0.1,0.6-0.1h5.9c0.6,0,0.7,0.1,1,0.7l0.6,1.5
				c0.2,0.6,0.3,0.9,0.3,1.1c0,0.5-0.3,0.6-0.8,0.6c-0.4,0-0.6,0.2-0.6,0.5c0,0.3,0.2,0.5,0.6,0.5h3.6h1.4h2.8
				c0.4,0,0.6-0.1,0.6-0.4S164.7,275.7,164.3,275.6z M155.1,270.4l-5.2,0.1c-0.3,0-0.5-0.2-0.5-0.4c0-0.1,0-0.2,0-0.2l2.8-7
				c0.1-0.1,0.2-0.2,0.2-0.2c0.1,0,0.1,0.1,0.2,0.3l2.9,6.9c0,0.1,0.1,0.2,0.1,0.3C155.5,270.3,155.4,270.4,155.1,270.4z"/>
			<path d="M167.3,272.2c0,0.1,0.1,0.4,0.2,0.7c0.7,1.6,2.2,2.6,3.7,2.6c1.1,0,2.2-0.5,3-1.4c0.2-0.2,0.3-0.3,0.4-0.3
				c0.2,0,0.4,0.2,0.4,0.4c0,0.1-0.1,0.3-0.2,0.4c-0.9,1.3-2.8,2.1-4.6,2.1c-3.4,0-5.8-2.4-5.8-5.7c0-3.1,2.3-5.5,5.2-5.5
				c1.7,0,3,0.7,4,2c0.4,0.5,0.6,0.8,0.8,1.4c0.2,0.3,0.3,0.6,0.3,0.6c0,0.1-0.1,0.3-0.3,0.3l-7,2.1
				C167.3,272.1,167.3,272.1,167.3,272.2z M167.3,271.1l4.7-1.4c0.2-0.1,0.3-0.2,0.3-0.3s-0.2-0.5-0.3-0.8c-0.2-0.5-0.5-0.9-0.8-1.2
				c-0.6-0.6-1.3-0.8-1.9-0.8c-1.5,0-2.4,1.3-2.4,3.3c0,0.8,0.1,1.4,0.3,1.4C167.1,271.1,167.2,271.1,167.3,271.1z"/>
			<path d="M176.1,269.3c0-0.8-0.2-1.1-0.6-1.2c-0.2-0.1-0.2-0.1-0.2-0.1c-0.2-0.1-0.4-0.3-0.4-0.4c0-0.2,0.1-0.3,0.3-0.4l2.9-1.6
				c0.1,0,0.1-0.1,0.2-0.1c0.2,0,0.3,0.1,0.4,0.4v1.1c0,0.2,0,0.3,0.1,0.3c0.1,0,0.1-0.1,0.3-0.3c0.7-1,1.8-1.6,3-1.6
				c2.6,0,4.8,2.6,4.8,5.7c0,3.1-2,5.5-4.6,5.5c-1.3,0-2.3-0.5-3.2-1.6c-0.2-0.2-0.3-0.3-0.3-0.3s-0.1,0.2-0.1,0.4v2.7
				c0,0.6,0,0.7,0.2,0.9c0.2,0.3,0.6,0.4,1,0.5c0.4,0.1,0.5,0.2,0.5,0.5c0,0.3-0.2,0.4-0.6,0.4H175c-0.4,0-0.6-0.1-0.6-0.4
				c0-0.3,0.2-0.4,0.5-0.5c0.5-0.1,0.8-0.3,0.9-0.5c0.1-0.2,0.2-0.4,0.2-0.9v-0.5V269.3z M178.5,272.1c0,1.9,1.1,3.3,2.6,3.3
				c1.7,0,3.1-1.9,3.1-4.6c0-2.4-1.2-4-2.9-4c-1.6,0-2.8,1.5-2.9,3.4l-0.1,1.7L178.5,272.1L178.5,272.1z"/>
			<path d="M190,267.3c0,0.1,0,0.2,0.1,0.2c0,0,0.1,0,0.1-0.1c0.8-1.1,2.1-1.7,3.3-1.7c1.7,0,2.8,1,3.1,2.9l0.9,5.8
				c0.2,1,0.4,1.3,1.1,1.4c0.4,0.1,0.6,0.2,0.6,0.5c0,0.3-0.2,0.4-0.6,0.4h-4.1c-0.4,0-0.6-0.1-0.6-0.4c0-0.3,0.1-0.4,0.5-0.5
				c0.6-0.1,0.7-0.4,0.7-0.7c0-0.1,0-0.3-0.1-0.6l-0.7-5.1c-0.2-1.2-0.8-1.8-1.8-1.8c-1.3,0-2.4,1.1-2.4,2.3v4.6c0,1,0.2,1.3,1,1.4
				c0.4,0.1,0.5,0.2,0.5,0.5c0,0.3-0.2,0.4-0.6,0.4h-4.3c-0.4,0-0.6-0.1-0.6-0.4c0-0.3,0.1-0.4,0.6-0.5c0.4-0.1,0.6-0.3,0.8-0.5
				c0.1-0.2,0.2-0.4,0.2-0.9v-11c0-0.9-0.2-1.2-0.6-1.4c-0.1,0-0.2-0.1-0.2-0.1c-0.2-0.1-0.3-0.2-0.3-0.4c0-0.2,0.1-0.3,0.3-0.4
				l2.9-1.6c0.1,0,0.1,0,0.2,0c0.2,0,0.3,0.1,0.3,0.4v7.4H190z"/>
		</g>
		<g>
			<path d="M194.4,348.7c-1,0.2-3.8,0.4-3.8,0.4l-0.3,1.1c0,0,1.4-0.1,2.4,0c0,0,0.3,0,0.4,0.4c0,0.4,0,0.8,0,0.8s0,0.2-0.4,0.3
				s-3,0.2-3,0.2l-0.4,1.4c0,0-0.2,0.3,0.2,0.2c0.3-0.1,3-0.6,3.4-0.5s0.8,0.6,0.7,1.1c-0.1,0.6-2.9,2.3-4.5,2.2
				c0,0-0.9,0.1-1.6-1.1c-0.7-1.1,0.2-3.2,0.2-3.2s-0.4-1-0.1-1.3c0,0,0.2-0.2,0.7-0.2l0.7-1.4c0,0-0.8,0-1.2-0.5s-0.5-0.8-0.1-0.9
				c0.3-0.2,3.5-0.7,5.7-0.7c0,0,0.8-0.1,1.4,1.2C194.6,348,194.9,348.5,194.4,348.7 M186.2,354c-0.3,0.7-1,1.3-1.9,0.9
				c-0.9-0.4-2.4-3.4-2.4-3.4s-0.5-1.1-0.6-1.1c0,0-0.1-0.2-0.2,1c-0.1,1.2,0,3.5-0.5,3.9s-1,0.2-1.3-0.2s-0.4-1.4-0.2-3.2
				c0.2-1.8,0.6-3.6,1.1-4.2c0.5-0.6,1-0.2,1.1,0c0,0,0.7,0.6,1.9,2.5l0.2,0.3l1.2,1.8c0,0,0.1,0.1,0.2,0c0.1,0,0.1-0.6,0.1-0.6
				s-0.2-1.9-1.2-5.1c0,0-0.1-0.4,0-0.8c0.1-0.4,0.5-0.2,0.5-0.2s1.5,0.7,2.2,3.1C186.9,351.1,186.5,353.3,186.2,354 M178.9,347.8
				c-0.1,0.3-0.2,0.6-0.8,0.7c0,0-6,0.4-6.3,0.8c0,0-0.2,0.3,0.1,0.3c0.3,0.1,1.7,0.3,2.3,0.3c0.7,0,3,0,3.9,1.1
				c0,0,0.5,0.5,0.5,1.6c0,1.2-0.2,1.6-0.7,2s-4.5,2.2-7.2-0.6c0,0-1.2-1.3,0.4-2.4c0,0,1.2-0.7,4.1,0.1c0,0,0.9,0.3,0.9,0.7
				c-0.1,0.4-0.7,0.7-1.7,0.7s-1.7-0.5-1.5-0.4c0.1,0-1-0.6-1.4-0.2s-0.3,0.6,0.1,0.9c0.9,0.5,4.4,0.3,5.5-0.8c0,0,0.4-0.5-0.2-0.9
				c-0.6-0.4-2.4-0.6-3.2-0.6c-0.7,0-3.2,0-3.6-0.7c0,0-0.4-0.5,0-1.7c0.4-1.3,3.3-1.9,4.6-2c0,0,3.5-0.1,4.1,0.6
				C178.9,347.4,179,347.5,178.9,347.8 M169,355.6c-0.4,0.3-1.3,0.2-1.6-0.2c-0.3-0.3-0.3-1.6-0.3-3.5c0.1-2,0.1-4.4,0.5-4.8
				c0.5-0.4,0.7,0,0.9,0.2c0.2,0.3,0.4,0.6,0.5,1.2c0.1,0.6,0.2,3.8,0.2,3.8S169.5,355.3,169,355.6 M169.9,345.2
				c-1.2,0.4-2.1,0.3-2.8,0c-0.3,0.6-0.5,0.7-0.7,0.8c-0.4,0-0.7-0.5-0.7-0.7c-0.1-0.1-0.2-0.4,0-0.9c-0.7-0.6-0.8-1.5-0.6-2
				c0.2-0.7,1.3-3.1,4.9-3.4c0,0,1.8-0.1,2.1,0.8h0.1c0,0,1.7,0,1.7,1.5C173.7,342.6,171.9,344.5,169.9,345.2 M171.5,340.8
				c-1.1,0.2-2.9,1.7-3.7,2.9c1.3,0.2,3.5,0.1,4.5-1.9C172.4,341.9,172.8,340.6,171.5,340.8 M166.6,341.8c-0.4,0.6-0.4,0.9-0.2,1.2
				c0.4-0.6,1.2-1.6,2.3-2.4C167.8,340.7,167.1,341.1,166.6,341.8 M197.1,355.6c-0.8,2-1.5,4.1-1.9,7.1c0,0-0.1,0.6-0.6,0.4
				s-1.3-1-1.5-2.1c-0.2-1.5,0.5-4,1.8-6.9c-0.4-0.6-0.7-1.6-0.5-2.9c0,0,0.4-2.4,2.8-4.6c0,0,0.3-0.2,0.5-0.2
				c0.2,0.1,0.1,0.9,0,1.3s-1.2,2.2-1.2,2.2s-0.7,1.3-0.5,2.3c1.3-1.9,4.2-5.9,5.9-4.6c1.1,0.8,1.1,3.4,0.3,4.9
				C201.5,353.7,199.6,356.1,197.1,355.6 M200.8,349.5c-0.7,0.7-1.8,2.1-2.8,3.9c1-0.1,1.9-0.7,2.2-0.9c0.5-0.4,1.6-1.6,1.4-3.1
				C201.6,349.4,201.5,348.6,200.8,349.5 M160.7,356.6c-3.2,1-6.2,0.5-7.8,0.1c0,0.7-0.1,0.9-0.2,1c-0.1,0.1-1.2,0.7-1.7-0.1
				c-0.3-0.4-0.4-1.1-0.5-1.8c-3.7-1.7-5.4-4.1-5.4-4.2c-0.1-0.1-0.9-1-0.1-2c0.8-1,3.4-1.9,5.7-2.3c0.1-2,0.3-3.5,0.6-4.2
				c0.3-0.8,0.8-0.1,1.1,0.5c0.3,0.4,0.5,2.1,0.5,3.5c1.5-0.1,2.4,0,4.1,0.4c2.2,0.4,3.7,1.5,3.5,2.8c-0.1,1.3-1.3,1.8-1.7,1.8
				s-1.2-0.3-1.2-0.3c-0.5-0.2,0-0.5,0.5-0.7c0.6-0.3,0.5-0.6,0.5-0.6c-0.2-0.7-3.1-1.2-5.9-1.2c0,1.6,0.1,4.2,0.1,5.7
				c2,0.4,3.5,0.3,3.5,0.3s7.2-0.2,7.4-4.8s-7.2-9.1-12.7-10.5s-8.6-0.4-8.9-0.3c-0.3,0.1,0,0.2,0,0.2s0.3,0,0.8,0.2
				c0.5,0.2,0.1,0.5,0.1,0.5c-0.9,0.3-2,0.1-2.2-0.3c-0.2-0.4,0.1-0.8,0.5-1.4s0.8-0.6,0.8-0.6c6.8-2.4,15.1,1.9,15.1,1.9
				c7.7,3.9,9.1,8.5,8.9,10.3C166.2,352.2,165.5,355.2,160.7,356.6 M145.8,350.2c-0.8,0.4-0.2,0.9-0.2,0.9c1.4,1.6,3.2,2.5,4.9,3.1
				c0.2-2.7,0.2-3.6,0.2-5C148,349.5,146.5,349.9,145.8,350.2"/>
		</g>
		<path d="M173.6,435c0,1.4,0,2.8,0.1,4.2c0,0.4-0.2,0.6-0.6,0.6c-4.2,0-8.4,0-12.7,0c-0.5,0-0.6-0.2-0.6-0.6c0-1.2,0-2.4,0-3.5
			c0-0.5,0.1-0.8,0.7-0.8c0.4-0.1,0.8-0.2,1-0.7c0.2-0.3,0.1-0.6,0.1-0.9c0-4.2,0-8.3,0-12.5c0-0.3,0.1-0.7-0.2-0.9
			c-0.2-0.2-0.3-0.4-0.6-0.4c-0.8,0-1-0.5-1-1.3c0.1-1,0.1-2,0-3c0-0.7,0.1-0.9,0.9-0.9c3.8,0,7.6-0.1,11.3,0
			c2.7,0.1,5.4,0.2,7.9,1.6c2.5,1.4,3.7,3.5,3.8,6.3c0.1,1.6-0.1,3.1-0.8,4.6c-1,2.2-2.9,3.2-5,3.9c-1.4,0.4-2.8,0.6-4.2,0.7
			c-0.2-0.2-0.4-0.1-0.6-0.1c-0.5,0-1.1,0-1.6,0c-0.6,0-0.7,0.2-0.7,0.7c0,0.6,0,1.1,0,1.7c0,1,0.2,1.2,1.3,1.3
			C172.6,434.8,173.1,434.8,173.6,435C173.6,435,173.6,435,173.6,435z M170.8,422.5C170.8,422.5,170.8,422.5,170.8,422.5
			c0,0.9,0,1.8,0,2.7c0,0.5,0.1,0.6,0.6,0.6c1.3,0,2.3-0.8,2.3-2.2c0-0.7,0-1.3,0-2c0.1-1.9-0.9-2.2-2.3-2.4c-0.4,0-0.6,0.1-0.6,0.5
			C170.9,420.8,170.8,421.6,170.8,422.5z"/>
		<path d="M171.8,171c1.9-0.1,3.8,0,5.7,0.3c2.8,0.4,5.4,1.2,7.5,3.2c1.5,1.4,2.6,3.1,3.2,5c0.9,3.2,1.1,6.5,0.9,9.8
			c-0.1,1.7-0.4,3.3-0.8,4.9c-0.9,3.4-3,5.8-6.2,7.3c-1.6,0.7-3.3,1.1-5.1,1.4c-2.7,0.4-5.5,0.3-8.2,0.2c-1.8-0.1-3.6-0.3-5.4-0.8
			c-2.3-0.6-4.4-1.7-6-3.5c-1.1-1.2-1.8-2.6-2.3-4.2c-0.9-3.2-1.1-6.4-0.9-9.7c0.1-2.1,0.5-4.1,1.1-6.1c0.8-2.2,2.1-3.9,4-5.2
			c1.5-1,3.1-1.6,4.8-2C166.7,171.1,169.2,170.9,171.8,171z M168.5,182.9c0.1,0.4,0.1,0.8,0.3,1.2c0.6,1.5,1.3,3,1.9,4.6
			c0.8,1.8,1.5,3.6,2.3,5.4c0.7,1.8,2.5,2.6,4.3,1.9c1.5-0.5,2.4-2.4,1.9-3.9c-0.2-0.6-0.5-1.2-0.7-1.8c-0.6-1.4-1.2-2.8-1.7-4.2
			c-0.5-1.3-1.1-2.6-1.6-3.9c-0.5-1.2-1.2-2.1-2.5-2.4C170.5,179.4,168.5,180.9,168.5,182.9z M167.5,196.3c2.2,0,3.8-2.2,3-4.3
			c-0.5-1.2-1-2.4-1.5-3.7c-0.9-2.1-1.8-4.2-2.6-6.3c-0.7-1.9-2.8-2.7-4.5-1.9c-1.4,0.7-2.2,2.5-1.7,3.9c0.5,1.4,1.1,2.7,1.7,4.1
			c0.8,2,1.7,4,2.5,5.9C164.9,195.4,166,196.2,167.5,196.3z M179.9,179.7c-0.2,0.1-0.7,0.1-1.1,0.3c-1.5,0.7-2.3,2.5-1.7,4
			c0.3,0.8,0.6,1.5,0.9,2.3c0.7,1.8,2.6,2.5,4,2.1c1.7-0.5,2.8-2.5,2.2-4.2c-0.3-0.8-0.6-1.6-1-2.4
			C182.7,180.4,181.5,179.8,179.9,179.7z"/>
	</g>
</g>
</svg>
